<svg width="26" height="26" viewBox="0 0 26 26" fill="none" xmlns="http://www.w3.org/2000/svg">
<path fill-rule="evenodd" clip-rule="evenodd" d="M10.8337 4.33325H15.167C19.2525 4.33325 21.2953 4.33325 22.5645 5.60246C23.4783 6.51629 23.7342 7.83114 23.8058 10.0208H2.19485C2.26649 7.83114 2.52236 6.51629 3.4362 5.60246C4.7054 4.33325 6.74815 4.33325 10.8337 4.33325ZM15.167 21.6666H10.8337C6.74815 21.6666 4.7054 21.6666 3.4362 20.3974C2.16699 19.1282 2.16699 17.0854 2.16699 12.9999C2.16699 12.5212 2.16699 12.0705 2.16903 11.6458H23.8316C23.8337 12.0701 23.8337 12.5203 23.8337 12.9986V12.9999V12.9999C23.8337 17.0854 23.8337 19.1282 22.5645 20.3974C21.2953 21.6666 19.2525 21.6666 15.167 21.6666ZM6.50098 16.5208C6.05225 16.5208 5.68848 16.8845 5.68848 17.3333C5.68848 17.782 6.05225 18.1458 6.50098 18.1458H10.8343C11.283 18.1458 11.6468 17.782 11.6468 17.3333C11.6468 16.8845 11.283 16.5208 10.8343 16.5208H6.50098ZM13.5426 16.5208C13.0939 16.5208 12.7301 16.8845 12.7301 17.3333C12.7301 17.782 13.0939 18.1458 13.5426 18.1458H15.1676C15.6164 18.1458 15.9801 17.782 15.9801 17.3333C15.9801 16.8845 15.6164 16.5208 15.1676 16.5208H13.5426Z" fill="white"/>
</svg>
