<svg width="20" height="20" viewBox="0 0 20 20" fill="none" xmlns="http://www.w3.org/2000/svg">
<path fill-rule="evenodd" clip-rule="evenodd" d="M19.1666 9.99992C19.1666 15.0625 15.0625 19.1666 9.99992 19.1666C4.93731 19.1666 0.833252 15.0625 0.833252 9.99992C0.833252 4.93731 4.93731 0.833252 9.99992 0.833252C15.0625 0.833252 19.1666 4.93731 19.1666 9.99992ZM7.22208 7.2221C7.49056 6.95361 7.92586 6.95361 8.19435 7.2221L9.99989 9.02764L11.8054 7.22212C12.0739 6.95363 12.5092 6.95363 12.7777 7.22212C13.0462 7.4906 13.0462 7.9259 12.7777 8.19439L10.9722 9.99991L12.7777 11.8054C13.0461 12.0739 13.0461 12.5092 12.7777 12.7777C12.5092 13.0462 12.0739 13.0462 11.8054 12.7777L9.99989 10.9722L8.19437 12.7777C7.92588 13.0462 7.49058 13.0462 7.2221 12.7777C6.95361 12.5092 6.95361 12.0739 7.2221 11.8054L9.02762 9.99991L7.22208 8.19437C6.95359 7.92588 6.95359 7.49058 7.22208 7.2221Z" fill="#FF3544"/>
</svg>
