<svg width="72" height="32" viewBox="0 0 72 32" fill="none" xmlns="http://www.w3.org/2000/svg">
<path d="M0.016 26V0.079998H10.064V2.768H3.632V11.344H8.848V13.904H3.632V23.408H10.128V26H0.016ZM16.8405 31.728C15.7312 31.728 14.7285 31.6107 13.8325 31.376C12.9365 31.1413 12.2325 30.768 11.7205 30.256C11.2085 29.744 10.9525 29.072 10.9525 28.24C10.9525 27.6427 11.0805 27.12 11.3365 26.672C11.5925 26.224 11.9232 25.84 12.3285 25.52C12.7338 25.1787 13.1605 24.9013 13.6085 24.688C13.0112 24.5173 12.5632 24.2507 12.2645 23.888C11.9658 23.504 11.8165 23.1093 11.8165 22.704C11.8165 22.0213 11.9978 21.4347 12.3605 20.944C12.7232 20.4533 13.2245 19.92 13.8645 19.344C13.1605 18.8107 12.6272 18.128 12.2645 17.296C11.9018 16.464 11.7205 15.312 11.7205 13.84C11.7205 12.3893 11.9125 11.184 12.2965 10.224C12.7018 9.24267 13.2885 8.50667 14.0565 8.016C14.8458 7.504 15.8058 7.248 16.9365 7.248C17.9392 7.248 18.7392 7.41867 19.3365 7.76C19.9552 8.10133 20.4245 8.61333 20.7445 9.296C20.8512 9.12533 21.1392 8.83733 21.6085 8.432C22.0778 8.00533 22.6218 7.65333 23.2405 7.376L23.7525 7.152L24.6165 9.36C24.3392 9.40267 23.9658 9.50933 23.4965 9.68C23.0485 9.82933 22.6218 9.98933 22.2165 10.16C21.8325 10.3093 21.5872 10.4373 21.4805 10.544C21.6298 10.9067 21.7578 11.4293 21.8645 12.112C21.9925 12.7947 22.0565 13.4027 22.0565 13.936C22.0565 15.1947 21.8965 16.304 21.5765 17.264C21.2565 18.224 20.7232 18.9813 19.9765 19.536C19.2512 20.0693 18.2378 20.336 16.9365 20.336C16.6592 20.336 16.3605 20.3147 16.0405 20.272C15.7205 20.2293 15.4325 20.176 15.1765 20.112C15.0485 20.304 14.9098 20.528 14.7605 20.784C14.6325 21.04 14.5685 21.2853 14.5685 21.52C14.5685 21.7547 14.6858 21.9467 14.9205 22.096C15.1765 22.224 15.5712 22.3093 16.1045 22.352L18.9845 22.608C20.4352 22.736 21.5125 23.1733 22.2165 23.92C22.9205 24.6667 23.2725 25.7333 23.2725 27.12C23.2725 28.1227 23.0378 28.9653 22.5685 29.648C22.0992 30.352 21.3845 30.8747 20.4245 31.216C19.4858 31.5573 18.2912 31.728 16.8405 31.728ZM17.0965 29.04C18.3125 29.04 19.2085 28.8907 19.7845 28.592C20.3605 28.3147 20.6485 27.856 20.6485 27.216C20.6485 26.832 20.5738 26.512 20.4245 26.256C20.2965 26 20.0512 25.7973 19.6885 25.648C19.3258 25.4987 18.8032 25.392 18.1205 25.328L15.2085 25.072C14.9738 25.3067 14.7498 25.5413 14.5365 25.776C14.3232 26.0107 14.1525 26.256 14.0245 26.512C13.8965 26.7893 13.8325 27.0773 13.8325 27.376C13.8325 27.9307 14.0672 28.3467 14.5365 28.624C15.0058 28.9013 15.8592 29.04 17.0965 29.04ZM16.9365 17.936C17.4272 17.936 17.8112 17.8507 18.0885 17.68C18.3872 17.488 18.6112 17.2213 18.7605 16.88C18.9098 16.5173 19.0058 16.08 19.0485 15.568C19.1125 15.056 19.1445 14.48 19.1445 13.84C19.1445 13.2 19.1125 12.624 19.0485 12.112C19.0058 11.5787 18.9098 11.1307 18.7605 10.768C18.6325 10.384 18.4192 10.096 18.1205 9.904C17.8432 9.712 17.4592 9.616 16.9685 9.616C16.4992 9.616 16.1045 9.712 15.7845 9.904C15.4858 10.096 15.2618 10.3733 15.1125 10.736C14.9632 11.0773 14.8565 11.5147 14.7925 12.048C14.7285 12.56 14.6965 13.1573 14.6965 13.84C14.6965 14.416 14.7178 14.96 14.7605 15.472C14.8245 15.9627 14.9312 16.3893 15.0805 16.752C15.2512 17.1147 15.4858 17.4027 15.7845 17.616C16.0832 17.8293 16.4672 17.936 16.9365 17.936ZM30.9418 26.256C29.4911 26.256 28.3711 25.9787 27.5818 25.424C26.7924 24.848 26.2378 24.016 25.9178 22.928C25.6191 21.8187 25.4698 20.464 25.4698 18.864V14.64C25.4698 12.9973 25.6298 11.632 25.9498 10.544C26.2698 9.456 26.8244 8.63467 27.6138 8.08C28.4244 7.52533 29.5338 7.248 30.9418 7.248C32.4991 7.248 33.6404 7.568 34.3658 8.208C35.1124 8.848 35.6031 9.776 35.8378 10.992C36.0724 12.1867 36.1898 13.6267 36.1898 15.312V16.816H28.8938V20.528C28.8938 21.2747 28.9578 21.8827 29.0858 22.352C29.2351 22.8213 29.4591 23.1733 29.7578 23.408C30.0778 23.6213 30.4831 23.728 30.9738 23.728C31.4858 23.728 31.8698 23.6107 32.1258 23.376C32.4031 23.12 32.5844 22.768 32.6698 22.32C32.7764 21.8507 32.8298 21.3067 32.8298 20.688V19.568H36.1578V20.272C36.1578 22.128 35.7631 23.5893 34.9738 24.656C34.1844 25.7227 32.8404 26.256 30.9418 26.256ZM28.8938 14.96H32.8298V13.296C32.8298 12.528 32.7871 11.888 32.7018 11.376C32.6164 10.8427 32.4351 10.448 32.1578 10.192C31.9018 9.91467 31.4858 9.776 30.9098 9.776C30.3551 9.776 29.9284 9.904 29.6298 10.16C29.3524 10.416 29.1604 10.8533 29.0538 11.472C28.9471 12.0693 28.8938 12.9013 28.8938 13.968V14.96ZM39.2905 26V7.504H42.7145V9.328C43.3332 8.752 44.0158 8.26133 44.7625 7.856C45.5092 7.45067 46.3305 7.248 47.2265 7.248C47.9732 7.248 48.5385 7.44 48.9225 7.824C49.3278 8.208 49.6052 8.688 49.7545 9.264C49.9252 9.84 50.0105 10.4267 50.0105 11.024V26H46.5865V12.016C46.5865 11.3547 46.4905 10.8427 46.2985 10.48C46.1065 10.1173 45.7118 9.936 45.1145 9.936C44.7305 9.936 44.3252 10.0533 43.8985 10.288C43.4932 10.5013 43.0985 10.768 42.7145 11.088V26H39.2905ZM53.577 26V7.504H57.001V26H53.577ZM53.577 4.752V1.168H57.001V4.752H53.577ZM65.7855 26.256C64.3348 26.256 63.2148 25.9787 62.4255 25.424C61.6362 24.848 61.0815 24.016 60.7615 22.928C60.4628 21.8187 60.3135 20.464 60.3135 18.864V14.64C60.3135 12.9973 60.4735 11.632 60.7935 10.544C61.1135 9.456 61.6682 8.63467 62.4575 8.08C63.2682 7.52533 64.3775 7.248 65.7855 7.248C67.3428 7.248 68.4842 7.568 69.2095 8.208C69.9562 8.848 70.4468 9.776 70.6815 10.992C70.9162 12.1867 71.0335 13.6267 71.0335 15.312V16.816H63.7375V20.528C63.7375 21.2747 63.8015 21.8827 63.9295 22.352C64.0788 22.8213 64.3028 23.1733 64.6015 23.408C64.9215 23.6213 65.3268 23.728 65.8175 23.728C66.3295 23.728 66.7135 23.6107 66.9695 23.376C67.2468 23.12 67.4282 22.768 67.5135 22.32C67.6202 21.8507 67.6735 21.3067 67.6735 20.688V19.568H71.0015V20.272C71.0015 22.128 70.6068 23.5893 69.8175 24.656C69.0282 25.7227 67.6842 26.256 65.7855 26.256ZM63.7375 14.96H67.6735V13.296C67.6735 12.528 67.6308 11.888 67.5455 11.376C67.4602 10.8427 67.2788 10.448 67.0015 10.192C66.7455 9.91467 66.3295 9.776 65.7535 9.776C65.1988 9.776 64.7722 9.904 64.4735 10.16C64.1962 10.416 64.0042 10.8533 63.8975 11.472C63.7908 12.0693 63.7375 12.9013 63.7375 13.968V14.96Z" fill="white"/>
</svg>
