<svg width="38" height="38" viewBox="0 0 38 38" fill="none" xmlns="http://www.w3.org/2000/svg">
<path fill-rule="evenodd" clip-rule="evenodd" d="M5.02101 8.18824C3.16602 10.0432 3.16602 13.0288 3.16602 18.9999C3.16602 24.971 3.16602 27.9566 5.02101 29.8116C6.876 31.6666 9.86156 31.6666 15.8327 31.6666H22.166C28.1371 31.6666 31.1227 31.6666 32.9777 29.8116C34.8327 27.9566 34.8327 24.971 34.8327 18.9999C34.8327 13.0288 34.8327 10.0432 32.9777 8.18824C31.1227 6.33325 28.1371 6.33325 22.166 6.33325H15.8327C9.86156 6.33325 6.876 6.33325 5.02101 8.18824ZM29.4116 11.9064C29.8315 12.4102 29.7634 13.159 29.2596 13.5788L25.7818 16.477C24.3784 17.6465 23.2409 18.5945 22.237 19.2401C21.1912 19.9128 20.1727 20.3376 18.9993 20.3376C17.826 20.3376 16.8075 19.9128 15.7617 19.2401C14.7578 18.5945 13.6203 17.6465 12.2169 16.477L8.73913 13.5788C8.2353 13.159 8.16723 12.4102 8.58709 11.9064C9.00694 11.4025 9.75574 11.3345 10.2596 11.7543L13.6778 14.6029C15.155 15.8339 16.1806 16.6857 17.0464 17.2426C17.8846 17.7817 18.453 17.9626 18.9993 17.9626C19.5457 17.9626 20.1141 17.7817 20.9523 17.2426C21.8181 16.6857 22.8437 15.8339 24.3209 14.6029L27.7391 11.7543C28.243 11.3345 28.9918 11.4025 29.4116 11.9064Z" fill="#111111"/>
</svg>
