<svg width="34" height="34" viewBox="0 0 34 34" fill="none" xmlns="http://www.w3.org/2000/svg">
<path d="M26.9159 9.91658C26.9159 10.1716 26.9017 10.4124 26.8734 10.6532C26.7034 12.7074 25.7967 14.5632 24.4226 15.9232C22.8926 17.4674 20.7676 18.4166 18.4159 18.4166H13.9817C13.2734 18.4166 12.6784 18.9407 12.5792 19.6349L11.5026 27.1149C11.4176 27.6674 11.0209 28.1208 10.4967 28.2624C10.3692 28.3191 10.2417 28.3333 10.1001 28.3333H7.33756C6.45923 28.3333 5.79341 27.5541 5.93508 26.6899L9.32089 6.3891C9.66089 4.33493 11.4318 2.83325 13.5143 2.83325H19.8326C23.7426 2.83325 26.9159 6.00659 26.9159 9.91658Z" fill="#01308A"/>
<path d="M29.7492 15.5833C29.7492 17.5383 28.9559 19.3091 27.6809 20.5983C26.3917 21.8733 24.6209 22.6666 22.6659 22.6666H19.6201C18.9259 22.6666 18.3309 23.1624 18.2175 23.8566L17.1976 29.9766C17.0842 30.6708 16.4892 31.1666 15.795 31.1666H11.6442C11.3892 31.1666 11.1625 31.1099 10.9642 30.9966C10.6525 30.8266 10.8509 30.4157 11.1909 30.2741C12.4659 29.8632 13.4009 28.7724 13.5992 27.4124L14.5059 21.1507C14.5625 20.7966 14.8601 20.5416 15.2001 20.5416H18.4159C21.2634 20.5416 23.9409 19.4366 25.9242 17.4391C27.1 16.2774 27.9784 14.8466 28.4884 13.3024C28.6017 12.9483 29.0692 12.8774 29.2251 13.2033C29.5651 13.9399 29.7492 14.7333 29.7492 15.5833Z" fill="#019CDE"/>
</svg>
