<svg width="38" height="38" viewBox="0 0 38 38" fill="none" xmlns="http://www.w3.org/2000/svg">
<path d="M24.6306 23.0339L23.9095 23.7931C23.9095 23.7931 22.1954 25.5977 17.5166 20.6718C12.8378 15.746 14.5519 13.9414 14.5519 13.9414L15.0061 13.4633C16.1248 12.2855 16.2302 10.3945 15.2542 9.01408L13.2577 6.19022C12.0496 4.48162 9.71527 4.25592 8.33063 5.71368L5.84543 8.33013C5.15886 9.05296 4.69878 9.98996 4.75457 11.0294C4.89731 13.6886 6.03363 19.4102 12.3743 26.0857C19.0984 33.1649 25.4075 33.4462 27.9874 33.1916C28.8035 33.111 29.5132 32.6709 30.0851 32.0688L32.3343 29.7009C33.8526 28.1024 33.4245 25.3621 31.4819 24.244L28.457 22.5028C27.1815 21.7687 25.6275 21.9843 24.6306 23.0339Z" fill="#111111"/>
<path d="M20.9935 2.97672C21.0984 2.32932 21.7104 1.89014 22.3578 1.99495C22.3979 2.00262 22.5268 2.02672 22.5943 2.04177C22.7295 2.07186 22.9179 2.11818 23.1529 2.18662C23.6228 2.32349 24.2792 2.54896 25.0671 2.91018C26.6446 3.63337 28.7438 4.89847 30.9221 7.07682C33.1005 9.25517 34.3656 11.3544 35.0888 12.9318C35.45 13.7197 35.6755 14.3762 35.8123 14.8461C35.8808 15.081 35.9271 15.2695 35.9572 15.4046C35.9722 15.4722 35.9832 15.5264 35.9909 15.5665L36 15.6159C36.1048 16.2633 35.6696 16.9006 35.0222 17.0054C34.3767 17.1099 33.7685 16.6729 33.6611 16.0285C33.6578 16.0112 33.6487 15.9647 33.639 15.9209C33.6194 15.8332 33.5856 15.6941 33.5321 15.5102C33.4249 15.1424 33.2388 14.5956 32.9298 13.9216C32.3126 12.5753 31.2027 10.7161 29.2428 8.7562C27.2828 6.79625 25.4237 5.68634 24.0774 5.06911C23.4034 4.76011 22.8566 4.57401 22.4887 4.46687C22.3048 4.4133 22.0737 4.36024 21.986 4.34071C21.3416 4.23333 20.889 3.62229 20.9935 2.97672Z" fill="#111111"/>
<path fill-rule="evenodd" clip-rule="evenodd" d="M21.3518 8.43838C21.5319 7.80777 22.1892 7.44263 22.8198 7.6228L22.4936 8.76461C22.8198 7.6228 22.8198 7.6228 22.8198 7.6228L22.8221 7.62345L22.8245 7.62415L22.8298 7.6257L22.8421 7.62936L22.8734 7.63912C22.8973 7.64675 22.9271 7.6567 22.9626 7.66931C23.0337 7.69454 23.1277 7.73043 23.243 7.77984C23.4737 7.87869 23.7889 8.03136 24.176 8.26048C24.951 8.71915 26.0089 9.48101 27.2518 10.7239C28.4947 11.9668 29.2566 13.0247 29.7152 13.7997C29.9443 14.1868 30.097 14.502 30.1959 14.7327C30.2453 14.848 30.2812 14.942 30.3064 15.0131C30.319 15.0486 30.3289 15.0784 30.3366 15.1023L30.3463 15.1336L30.35 15.1459L30.3515 15.1512L30.3522 15.1536C30.3522 15.1536 30.3529 15.1559 29.2111 15.4821L30.3529 15.1559C30.5331 15.7865 30.1679 16.4438 29.5373 16.6239C28.9121 16.8026 28.2606 16.4451 28.074 15.8244L28.0681 15.8073C28.0597 15.7835 28.0422 15.7367 28.0129 15.6683C27.9543 15.5316 27.8481 15.3079 27.6713 15.0093C27.3183 14.4128 26.6807 13.5115 25.5724 12.4033C24.4642 11.295 23.5629 10.6574 22.9664 10.3044C22.6678 10.1276 22.4441 10.0214 22.3074 9.96281C22.239 9.93349 22.1922 9.91602 22.1684 9.90758L22.1513 9.90173C21.5306 9.71509 21.1731 9.06363 21.3518 8.43838Z" fill="#111111"/>
</svg>
