<svg width="26" height="26" viewBox="0 0 26 26" fill="none" xmlns="http://www.w3.org/2000/svg">
<path d="M19.0424 4.80089L16.8757 3.66388C14.9738 2.66579 14.0228 2.16675 12.9998 2.16675C11.9769 2.16675 11.0259 2.66579 9.12399 3.66388L8.77545 3.84678L18.4421 9.37056L22.7935 7.19485C22.0934 6.40203 20.9639 5.80928 19.0424 4.80089Z" fill="white"/>
<path d="M23.5606 8.62812L19.229 10.7939V14.0834C19.229 14.5321 18.8652 14.8959 18.4165 14.8959C17.9678 14.8959 17.604 14.5321 17.604 14.0834V11.6064L13.8123 13.5022V23.7294C14.5901 23.5357 15.475 23.0713 16.8757 22.3363L19.0424 21.1993C21.3733 19.976 22.5388 19.3644 23.186 18.2654C23.8332 17.1663 23.8332 15.7987 23.8332 13.0634V12.9367C23.8332 10.8863 23.8332 9.60445 23.5606 8.62812Z" fill="white"/>
<path d="M12.1873 23.7294V13.5022L2.43911 8.62812C2.1665 9.60445 2.1665 10.8863 2.1665 12.9367V13.0634C2.1665 15.7987 2.1665 17.1663 2.81368 18.2654C3.46086 19.3644 4.62634 19.976 6.9573 21.1993L9.12399 22.3363C10.5247 23.0713 11.4096 23.5357 12.1873 23.7294Z" fill="white"/>
<path d="M3.20617 7.19485L12.9998 12.0917L16.6953 10.244L7.06811 4.74275L6.95732 4.80089C5.03576 5.80928 3.90623 6.40203 3.20617 7.19485Z" fill="white"/>
</svg>
