<svg width="18" height="17" viewBox="0 0 18 17" fill="none" xmlns="http://www.w3.org/2000/svg">
<path d="M14.7361 0.215927C14.993 0.322339 15.1605 0.573027 15.1605 0.851094V4.74018C15.1605 5.11988 14.8527 5.42768 14.473 5.42768H10.5839C10.3058 5.42768 10.0551 5.26018 9.94871 5.00328C9.8423 4.74638 9.90112 4.45067 10.0977 4.25405L11.5672 2.78463C9.1533 1.77502 6.26455 2.25332 4.30052 4.21735C1.70516 6.81271 1.70516 11.0206 4.30052 13.616C6.89588 16.2113 11.1038 16.2113 13.6991 13.616C15.2082 12.107 15.8402 10.0534 15.5939 8.08589C15.5467 7.70913 15.8139 7.36547 16.1906 7.3183C16.5674 7.27113 16.9111 7.53831 16.9582 7.91506C17.255 10.2856 16.4932 12.7664 14.6714 14.5883C11.5391 17.7206 6.46058 17.7206 3.32825 14.5883C0.195921 11.4559 0.195921 6.37741 3.32825 3.24508C5.83843 0.734904 9.59703 0.236933 12.6032 1.74859L13.9868 0.364958C14.1835 0.168335 14.4792 0.109515 14.7361 0.215927Z" fill="#111111"/>
</svg>
