<svg width="14" height="18" viewBox="0 0 14 18" fill="none" xmlns="http://www.w3.org/2000/svg">
<path d="M8.03125 9.0001C8.03125 8.72396 8.19647 8.47461 8.45078 8.36697C8.70508 8.25934 8.99911 8.31431 9.19735 8.50654L12.9786 12.1732C13.1121 12.3027 13.1875 12.4808 13.1875 12.6668C13.1875 12.8528 13.1121 13.0308 12.9786 13.1603L9.19735 16.827C8.99911 17.0192 8.70508 17.0742 8.45078 16.9666C8.19648 16.8589 8.03125 16.6096 8.03125 16.3334V13.3543H1.5C1.12031 13.3543 0.8125 13.0465 0.8125 12.6668C0.8125 12.2871 1.12031 11.9793 1.5 11.9793L8.03125 11.9793L8.03125 9.0001Z" fill="#111111"/>
<path d="M5.96875 1.66677C5.96875 1.39062 5.80353 1.14128 5.54922 1.03364C5.29492 0.926006 5.00089 0.980974 4.80265 1.17321L1.0214 4.83988C0.887867 4.96936 0.8125 5.14743 0.8125 5.33343C0.8125 5.51944 0.887867 5.6975 1.0214 5.82699L4.80265 9.49366C5.00089 9.68589 5.29492 9.74086 5.54922 9.63322C5.80353 9.52559 5.96875 9.27624 5.96875 9.0001V6.02093L12.5 6.02093C12.8797 6.02093 13.1875 5.71313 13.1875 5.33343C13.1875 4.95374 12.8797 4.64593 12.5 4.64593L5.96875 4.64593V1.66677Z" fill="#111111"/>
</svg>
