<svg width="22" height="22" viewBox="0 0 22 22" fill="none" xmlns="http://www.w3.org/2000/svg">
<path d="M14.0557 3.3333C14.0544 3.33368 13.832 3.40252 13.4567 3.51867C13.3941 3.31526 13.3018 3.06541 13.1702 2.81439C12.7457 2.00476 12.1244 1.57621 11.3734 1.5751C11.3725 1.5751 11.3718 1.5751 11.3709 1.5751C11.3188 1.5751 11.2669 1.58001 11.215 1.5847C11.1929 1.55811 11.1706 1.53175 11.1471 1.5066C10.8201 1.15664 10.4003 0.986152 9.89778 1.00088C8.9277 1.02868 7.96209 1.72915 7.17883 2.97313C6.62749 3.84867 6.20864 4.94853 6.08956 5.7998C4.97597 6.14463 4.19679 6.38593 4.17997 6.39123C3.61782 6.56762 3.60017 6.58527 3.52648 7.11492C3.47067 7.51585 2 18.8896 2 18.8896L14.2034 21V3.30831C14.1432 3.31217 14.0894 3.32337 14.0557 3.3333ZM11.2377 4.20575C10.592 4.40568 9.88691 4.62399 9.17971 4.84301C9.37882 4.08132 9.75569 3.32298 10.2188 2.82614C10.3911 2.64131 10.6322 2.43514 10.9175 2.31739C11.186 2.87683 11.2442 3.66997 11.2377 4.20575ZM9.91636 1.64631C10.1441 1.64157 10.3359 1.69154 10.4997 1.79931C10.2378 1.93532 9.98431 2.1309 9.74659 2.38583C9.13045 3.04676 8.65854 4.07299 8.47035 5.06264C7.883 5.24449 7.30855 5.42237 6.78011 5.58601C7.11341 4.02754 8.41933 1.68938 9.91636 1.64631ZM8.02894 10.5224C8.09447 11.5606 10.8256 11.7874 10.9791 14.219C11.0999 16.132 9.9644 17.4406 8.32821 17.544C6.36484 17.6679 5.28368 16.5093 5.28368 16.5093L5.69972 14.7393C5.69972 14.7393 6.78772 15.5602 7.65863 15.5052C8.2275 15.4693 8.4308 15.0066 8.41012 14.6793C8.32463 13.3251 6.10065 13.4049 5.96017 11.1797C5.84191 9.30692 7.07166 7.40968 9.7852 7.23831C10.8307 7.17229 11.3661 7.43924 11.3661 7.43924L10.7456 9.76051C10.7456 9.76051 10.0534 9.44536 9.23282 9.49715C8.02971 9.57321 8.01697 10.3321 8.02894 10.5224ZM11.8825 4.00608C11.8754 3.51492 11.8167 2.83171 11.5879 2.24111C12.3239 2.38059 12.6863 3.21333 12.8392 3.70984C12.5557 3.79771 12.2325 3.8977 11.8825 4.00608Z" fill="white"/>
<path d="M14.6064 20.9518L19.669 19.6934C19.669 19.6934 17.4893 4.95635 17.4755 4.85525C17.4616 4.75415 17.3731 4.69828 17.3001 4.69216C17.2271 4.68609 15.8019 4.66436 15.8019 4.66436C15.8019 4.66436 14.9329 3.82042 14.6064 3.50113V20.9518Z" fill="white"/>
</svg>
