<svg width="26" height="26" viewBox="0 0 26 26" fill="none" xmlns="http://www.w3.org/2000/svg">
<path d="M4.09229 3.95949C3.89616 4.35046 3.7997 4.83276 3.60679 5.79735L2.95904 9.03609C2.5489 11.0868 4.11741 13.0001 6.20873 13.0001C7.91133 13.0001 9.33692 11.7099 9.50634 10.0158L9.5811 9.26816C9.40441 11.2709 10.983 13.0001 12.9993 13.0001C15.0294 13.0001 16.6157 11.2473 16.4137 9.22723L16.4928 10.0158C16.6622 11.7099 18.0878 13.0001 19.7904 13.0001C21.8817 13.0001 23.4502 11.0868 23.0401 9.03609L22.3923 5.79735C22.1994 4.83277 22.103 4.35046 21.9068 3.95949C21.4936 3.13567 20.75 2.52606 19.8611 2.28239C19.4393 2.16675 18.9474 2.16675 17.9637 2.16675H15.7077H8.03541C7.05171 2.16675 6.55986 2.16675 6.13802 2.28239C5.24916 2.52606 4.50555 3.13567 4.09229 3.95949Z" fill="white"/>
<path d="M19.7912 14.625C20.6764 14.625 21.4988 14.395 22.2087 13.9956V15.1667C22.2087 19.2522 22.2087 21.295 20.9395 22.5642C19.9178 23.5858 18.3949 23.7851 15.7087 23.824V20.0417C15.7087 19.0292 15.7087 18.523 15.4909 18.1459C15.3483 17.8989 15.1432 17.6937 14.8962 17.5511C14.5191 17.3334 14.0128 17.3334 13.0003 17.3334C11.9878 17.3334 11.4816 17.3334 11.1045 17.5511C10.8575 17.6937 10.6523 17.8989 10.5097 18.1459C10.292 18.523 10.292 19.0292 10.292 20.0417V23.824C7.60579 23.7851 6.08287 23.5858 5.0612 22.5642C3.79199 21.295 3.79199 19.2522 3.79199 15.1667V13.9955C4.50183 14.395 5.32425 14.625 6.20953 14.625C7.50635 14.625 8.69534 14.1228 9.5817 13.2947C10.478 14.1181 11.6749 14.625 13.0001 14.625C14.3255 14.625 15.5225 14.118 16.4188 13.2944C17.3052 14.1227 18.4942 14.625 19.7912 14.625Z" fill="white"/>
</svg>
