<svg width="30" height="30" viewBox="0 0 30 30" fill="none" xmlns="http://www.w3.org/2000/svg">
<path d="M3.75 7.98247C3.75 7.3769 4.18173 6.88598 4.71429 6.88598L8.04458 6.8854C8.70628 6.86633 9.29002 6.38792 9.51517 5.68015C9.52109 5.66154 9.5279 5.63859 9.55232 5.5553L9.69581 5.0657C9.78363 4.76551 9.86013 4.50398 9.96718 4.27022C10.3901 3.3467 11.1726 2.7054 12.0768 2.54121C12.3057 2.49965 12.5481 2.49983 12.8263 2.50003H17.1739C17.4521 2.49983 17.6945 2.49965 17.9234 2.54121C18.8276 2.7054 19.6101 3.3467 20.033 4.27022C20.1401 4.50398 20.2166 4.76551 20.3044 5.0657L20.4479 5.5553C20.4723 5.63859 20.4791 5.66154 20.485 5.68015C20.7102 6.38792 21.4097 6.86692 22.0714 6.88598H25.2857C25.8183 6.88598 26.25 7.3769 26.25 7.98247C26.25 8.58804 25.8183 9.07895 25.2857 9.07895H4.71429C4.18173 9.07895 3.75 8.58804 3.75 7.98247Z" fill="#111111"/>
<path d="M14.4945 27.5003H15.5055C18.9839 27.5003 20.7231 27.5003 21.8539 26.3929C22.9847 25.2855 23.1004 23.4689 23.3318 19.8359L23.6652 14.601C23.7907 12.6298 23.8535 11.6442 23.2862 11.0196C22.7189 10.395 21.7609 10.395 19.8449 10.395H10.1551C8.23909 10.395 7.2811 10.395 6.71381 11.0196C6.14653 11.6442 6.2093 12.6298 6.33484 14.601L6.66824 19.8359C6.89962 23.4689 7.01531 25.2855 8.14611 26.3929C9.27691 27.5003 11.0161 27.5003 14.4945 27.5003Z" fill="#111111"/>
<path fill-rule="evenodd" clip-rule="evenodd" d="M11.7818 14.3519C12.297 14.2977 12.7564 14.6933 12.8079 15.2356L13.4329 21.8146C13.4844 22.3569 13.1086 22.8405 12.5934 22.8947C12.0782 22.949 11.6187 22.5533 11.5672 22.011L10.9422 15.432C10.8907 14.8897 11.2666 14.4061 11.7818 14.3519Z" fill="white"/>
<path fill-rule="evenodd" clip-rule="evenodd" d="M18.2184 14.3519C18.7335 14.4061 19.1094 14.8897 19.0579 15.432L18.4329 22.011C18.3814 22.5533 17.922 22.949 17.4068 22.8947C16.8916 22.8405 16.5157 22.3569 16.5672 21.8146L17.1922 15.2356C17.2437 14.6933 17.7032 14.2977 18.2184 14.3519Z" fill="white"/>
</svg>
