<svg width="36" height="12" viewBox="0 0 36 12" fill="none" xmlns="http://www.w3.org/2000/svg">
<path d="M15.6104 11.7013H12.6747L14.5095 0.306634H17.4455L15.6104 11.7013ZM10.205 0.306634L7.40621 8.14397L7.07503 6.45629L7.07533 6.4569L6.08751 1.33259C6.08751 1.33259 5.96806 0.306634 4.6949 0.306634H0.0679646L0.0136719 0.499572C0.0136719 0.499572 1.4286 0.797058 3.08452 1.80198L5.63507 11.7016H8.69385L13.3645 0.306634H10.205ZM33.2959 11.7013H35.9916L33.6413 0.306329H31.2814C30.1916 0.306329 29.9262 1.1555 29.9262 1.1555L25.5478 11.7013H28.6081L29.2201 10.0087H32.9521L33.2959 11.7013ZM30.0655 7.67062L31.608 3.40646L32.4758 7.67062H30.0655ZM25.7773 3.04679L26.1963 0.599851C26.1963 0.599851 24.9035 0.103027 23.5559 0.103027C22.099 0.103027 18.6394 0.746461 18.6394 3.87524C18.6394 6.819 22.6998 6.85558 22.6998 8.40183C22.6998 9.94809 19.0577 9.67102 17.8557 8.69596L17.4193 11.2545C17.4193 11.2545 18.7301 11.8979 20.7329 11.8979C22.7363 11.8979 25.7586 10.8497 25.7586 7.99675C25.7586 5.03409 21.6616 4.75825 21.6616 3.47016C21.6619 2.18177 24.5211 2.34727 25.7773 3.04679Z" fill="#2566AF"/>
</svg>
