<svg width="23" height="22" viewBox="0 0 23 22" fill="none" xmlns="http://www.w3.org/2000/svg">
<path d="M20.2999 9.34998H11.6833V12.7416H16.7249C16.6333 13.5666 16.0833 14.85 14.8916 15.675C14.1583 16.225 13.0583 16.5916 11.6833 16.5916C9.29994 16.5916 7.1916 15.0333 6.45827 12.7416C6.27494 12.1916 6.18327 11.55 6.18327 10.9083C6.18327 10.2666 6.27494 9.62498 6.45827 9.07498C6.54994 8.89165 6.54993 8.70831 6.6416 8.61665C7.4666 6.69165 9.3916 5.31665 11.6833 5.31665C13.4249 5.31665 14.5249 6.04998 15.2583 6.69165L17.8249 4.12498C16.2666 2.74998 14.1583 1.83331 11.6833 1.83331C8.10827 1.83331 4.9916 3.84998 3.52493 6.87498C2.88327 8.15831 2.5166 9.53331 2.5166 11C2.5166 12.4666 2.88327 13.8416 3.52493 15.125C4.9916 18.15 8.10827 20.1666 11.6833 20.1666C14.1583 20.1666 16.2666 19.3416 17.7333 17.9666C19.4749 16.4083 20.4833 14.025 20.4833 11.1833C20.4833 10.45 20.3916 9.89998 20.2999 9.34998Z" stroke="white" stroke-width="1.375" stroke-miterlimit="10" stroke-linecap="round" stroke-linejoin="round"/>
</svg>
