<svg width="26" height="26" viewBox="0 0 26 26" fill="none" xmlns="http://www.w3.org/2000/svg">
<path fill-rule="evenodd" clip-rule="evenodd" d="M10.8327 4.33325H15.166C19.2515 4.33325 21.2943 4.33325 22.5635 5.60246C23.4773 6.51629 23.7332 7.83114 23.8048 10.0208H2.19388C2.26552 7.83114 2.52138 6.51629 3.43522 5.60246C4.70442 4.33325 6.74718 4.33325 10.8327 4.33325ZM15.166 21.6666H10.8327C6.74718 21.6666 4.70442 21.6666 3.43522 20.3974C2.16602 19.1282 2.16602 17.0854 2.16602 12.9999C2.16602 12.5212 2.16602 12.0705 2.16806 11.6458H23.8306C23.8327 12.0701 23.8327 12.5203 23.8327 12.9986V12.9999V12.9999C23.8327 17.0854 23.8327 19.1282 22.5635 20.3974C21.2943 21.6666 19.2515 21.6666 15.166 21.6666ZM6.5 16.5208C6.05127 16.5208 5.6875 16.8845 5.6875 17.3333C5.6875 17.782 6.05127 18.1458 6.5 18.1458H10.8333C11.2821 18.1458 11.6458 17.782 11.6458 17.3333C11.6458 16.8845 11.2821 16.5208 10.8333 16.5208H6.5ZM13.5417 16.5208C13.0929 16.5208 12.7292 16.8845 12.7292 17.3333C12.7292 17.782 13.0929 18.1458 13.5417 18.1458H15.1667C15.6154 18.1458 15.9792 17.782 15.9792 17.3333C15.9792 16.8845 15.6154 16.5208 15.1667 16.5208H13.5417Z" fill="white"/>
</svg>
