<svg width="26" height="26" viewBox="0 0 26 26" fill="none" xmlns="http://www.w3.org/2000/svg">
<path d="M8.66667 3.79175C8.66667 2.89429 9.3942 2.16675 10.2917 2.16675H15.7083C16.6058 2.16675 17.3333 2.89429 17.3333 3.79175V4.87508C17.3333 5.77254 16.6058 6.50008 15.7083 6.50008H10.2917C9.3942 6.50008 8.66667 5.77254 8.66667 4.87508V3.79175Z" fill="white"/>
<path fill-rule="evenodd" clip-rule="evenodd" d="M7.04167 4.37308C5.67894 4.44954 4.81865 4.66669 4.2019 5.28343C3.25 6.23534 3.25 7.7674 3.25 10.8315V17.3315C3.25 20.3957 3.25 21.9277 4.2019 22.8796C5.15381 23.8315 6.68587 23.8315 9.75 23.8315H16.25C19.3141 23.8315 20.8462 23.8315 21.7981 22.8796C22.75 21.9277 22.75 20.3957 22.75 17.3315V10.8315C22.75 7.7674 22.75 6.23534 21.7981 5.28343C21.1814 4.66669 20.3211 4.44954 18.9583 4.37308V4.87508C18.9583 6.67001 17.5033 8.12508 15.7083 8.12508H10.2917C8.49674 8.12508 7.04167 6.67001 7.04167 4.87508V4.37308ZM6.77083 11.3751C6.77083 10.9263 7.1346 10.5626 7.58333 10.5626H18.4167C18.8654 10.5626 19.2292 10.9263 19.2292 11.3751C19.2292 11.8238 18.8654 12.1876 18.4167 12.1876H7.58333C7.1346 12.1876 6.77083 11.8238 6.77083 11.3751ZM7.85417 15.1667C7.85417 14.718 8.21794 14.3542 8.66667 14.3542H17.3333C17.7821 14.3542 18.1458 14.718 18.1458 15.1667C18.1458 15.6155 17.7821 15.9792 17.3333 15.9792H8.66667C8.21794 15.9792 7.85417 15.6155 7.85417 15.1667ZM8.9375 18.9584C8.9375 18.5097 9.30127 18.1459 9.75 18.1459H16.25C16.6987 18.1459 17.0625 18.5097 17.0625 18.9584C17.0625 19.4071 16.6987 19.7709 16.25 19.7709H9.75C9.30127 19.7709 8.9375 19.4071 8.9375 18.9584Z" fill="white"/>
</svg>
