<svg width="18" height="18" viewBox="0 0 18 18" fill="none" xmlns="http://www.w3.org/2000/svg">
<path d="M5.8125 1.875C5.8125 1.56434 5.56066 1.3125 5.25 1.3125C4.93934 1.3125 4.6875 1.56434 4.6875 1.875V3.05944C3.608 3.14588 2.89933 3.35803 2.37868 3.87868C1.85803 4.39933 1.64588 5.108 1.55944 6.1875H16.4406C16.3541 5.108 16.142 4.39933 15.6213 3.87868C15.1007 3.35803 14.392 3.14588 13.3125 3.05944V1.875C13.3125 1.56434 13.0607 1.3125 12.75 1.3125C12.4393 1.3125 12.1875 1.56434 12.1875 1.875V3.00968C11.6886 3 11.1293 3 10.5 3H7.5C6.87072 3 6.31145 3 5.8125 3.00968V1.875Z" fill="#111111"/>
<path fill-rule="evenodd" clip-rule="evenodd" d="M1.5 9C1.5 8.37072 1.5 7.81145 1.50968 7.3125H16.4903C16.5 7.81145 16.5 8.37072 16.5 9V10.5C16.5 13.3284 16.5 14.7426 15.6213 15.6213C14.7426 16.5 13.3284 16.5 10.5 16.5H7.5C4.67157 16.5 3.25736 16.5 2.37868 15.6213C1.5 14.7426 1.5 13.3284 1.5 10.5V9ZM12.75 10.5C13.1642 10.5 13.5 10.1642 13.5 9.75C13.5 9.33579 13.1642 9 12.75 9C12.3358 9 12 9.33579 12 9.75C12 10.1642 12.3358 10.5 12.75 10.5ZM12.75 13.5C13.1642 13.5 13.5 13.1642 13.5 12.75C13.5 12.3358 13.1642 12 12.75 12C12.3358 12 12 12.3358 12 12.75C12 13.1642 12.3358 13.5 12.75 13.5ZM9.75 9.75C9.75 10.1642 9.41421 10.5 9 10.5C8.58579 10.5 8.25 10.1642 8.25 9.75C8.25 9.33579 8.58579 9 9 9C9.41421 9 9.75 9.33579 9.75 9.75ZM9.75 12.75C9.75 13.1642 9.41421 13.5 9 13.5C8.58579 13.5 8.25 13.1642 8.25 12.75C8.25 12.3358 8.58579 12 9 12C9.41421 12 9.75 12.3358 9.75 12.75ZM5.25 10.5C5.66421 10.5 6 10.1642 6 9.75C6 9.33579 5.66421 9 5.25 9C4.83579 9 4.5 9.33579 4.5 9.75C4.5 10.1642 4.83579 10.5 5.25 10.5ZM5.25 13.5C5.66421 13.5 6 13.1642 6 12.75C6 12.3358 5.66421 12 5.25 12C4.83579 12 4.5 12.3358 4.5 12.75C4.5 13.1642 4.83579 13.5 5.25 13.5Z" fill="#111111"/>
</svg>
