<svg width="22" height="22" viewBox="0 0 22 22" fill="none" xmlns="http://www.w3.org/2000/svg">
<path d="M20.1666 10.9999C20.1666 16.0625 16.0625 20.1666 10.9999 20.1666C5.93731 20.1666 1.83325 16.0625 1.83325 10.9999C1.83325 5.93731 5.93731 1.83325 10.9999 1.83325C16.0625 1.83325 20.1666 5.93731 20.1666 10.9999Z" fill="#28CF75"/>
<path d="M14.6946 8.22212C14.963 8.4906 14.963 8.9259 14.6946 9.19439L10.1112 13.7777C9.84273 14.0462 9.40743 14.0462 9.13895 13.7777L7.30561 11.9444C7.03713 11.6759 7.03713 11.2406 7.30561 10.9721C7.5741 10.7036 8.0094 10.7036 8.27788 10.9721L9.62508 12.3193L11.6737 10.2707L13.7223 8.22212C13.9908 7.95363 14.4261 7.95363 14.6946 8.22212Z" fill="white"/>
</svg>
