<svg width="132" height="26" viewBox="0 0 132 26" fill="none" xmlns="http://www.w3.org/2000/svg">
<path d="M25.5197 4.3335H2.48027C1.66274 4.3335 1 4.99624 1 5.81377V19.5989C1 20.4165 1.66274 21.0792 2.48027 21.0792H25.5197C26.3373 21.0792 27 20.4165 27 19.5989V5.81377C27 4.99624 26.3373 4.3335 25.5197 4.3335Z" fill="#F9F9F9" stroke="#ABABAB" stroke-width="0.54494" stroke-linecap="round" stroke-linejoin="round"/>
<path fill-rule="evenodd" clip-rule="evenodd" d="M11.7104 9.57032L10.6804 15.9002H12.3283L13.3584 9.57032H11.7104ZM9.29396 9.57032L7.72281 13.924L7.53696 12.9865L7.5371 12.9868L7.49614 12.7767C7.30599 12.3669 6.86561 11.588 6.03403 10.9233C5.80135 10.7378 5.55637 10.5683 5.30078 10.4159L6.7287 15.9002H8.44566L11.0676 9.57032H9.29396ZM15.7254 11.3276C15.7254 10.612 17.3303 10.7039 18.0355 11.0925L18.2706 9.73304C18.2706 9.73304 17.5449 9.45703 16.7884 9.45703C15.9706 9.45703 14.0285 9.81468 14.0285 11.5525C14.0285 13.188 16.3079 13.2083 16.3079 14.067C16.3079 14.9256 14.2636 14.7722 13.5889 14.2305L13.3437 15.6515C13.3437 15.6515 14.0795 16.0091 15.204 16.0091C16.3284 16.0091 18.0252 15.4266 18.0252 13.8421C18.0252 12.1964 15.7254 12.0431 15.7254 11.3276ZM22.4499 9.57032H21.125C20.5132 9.57032 20.3642 10.0421 20.3642 10.0421L17.9067 15.9002H19.6243L19.9679 14.96H22.0629L22.2561 15.9002H23.7693L22.4499 9.57032ZM20.4428 13.6611L21.3087 11.2923L21.7959 13.6611H20.4428Z" fill="#005BAC"/>
<path fill-rule="evenodd" clip-rule="evenodd" d="M7.00428 10.166C7.00428 10.166 6.93607 9.59473 6.20787 9.59473H3.56224L3.53125 9.70209C3.53125 9.70209 4.80295 9.96133 6.02298 10.9326C7.1889 11.8608 7.56924 13.018 7.56924 13.018L7.00428 10.166Z" fill="#F6AC1D"/>
<g clip-path="url(#clip0_707_4046)">
<path d="M52.1812 19.317H45.1504V6.68213H52.1812V19.317Z" fill="#FF5F00"/>
<path d="M45.5969 13.0002C45.5959 11.7835 45.8716 10.5824 46.4034 9.48801C46.9351 8.39359 47.7088 7.43448 48.666 6.6833C47.4807 5.75177 46.0572 5.17249 44.5582 5.01167C43.0593 4.85085 41.5453 5.11498 40.1894 5.77386C38.8334 6.43274 37.6902 7.4598 36.8903 8.73767C36.0904 10.0155 35.6661 11.4927 35.666 13.0002C35.6663 14.5076 36.0906 15.9845 36.8904 17.2622C37.6903 18.5398 38.8334 19.5668 40.1891 20.2256C41.5449 20.8845 43.0586 21.1486 44.5574 20.988C46.0562 20.8274 47.4796 20.2483 48.6649 19.3171C47.7081 18.5657 46.9346 17.6066 46.4031 16.5122C45.8716 15.4178 45.5959 14.2169 45.5969 13.0002Z" fill="#EB001B"/>
<path d="M61.666 13.0002C61.6659 14.5078 61.2416 15.9849 60.4418 17.2628C59.6419 18.5406 58.4986 19.5677 57.1427 20.2266C55.7867 20.8855 54.2727 21.1496 52.7738 20.9888C51.2748 20.8279 49.8513 20.2487 48.666 19.3171C50.5348 17.846 51.7351 15.5634 51.7351 13.0002C51.7351 10.4371 50.5348 8.15447 48.666 6.6833C49.8513 5.75177 51.2748 5.17249 52.7738 5.01167C54.2727 4.85085 55.7867 5.11498 57.1427 5.77386C58.4986 6.43274 59.6419 7.4598 60.4418 8.73767C61.2416 10.0155 61.6659 11.4927 61.666 13.0002Z" fill="#F79E1B"/>
</g>
<g clip-path="url(#clip1_707_4046)">
<path d="M95.6666 4.5752H71.0053C70.6352 4.5752 70.3359 4.87488 70.3359 5.24453V20.7552C70.3359 21.1249 70.6352 21.425 71.0053 21.425H95.6666C96.0367 21.425 96.3359 21.1253 96.3359 20.7557V5.24453C96.3359 4.87488 96.0367 4.5752 95.6666 4.5752ZM76.7319 12.2739L76.6546 12.0985V12.1082C76.6546 12.3333 76.4718 12.5161 76.2467 12.5161H75.0457C74.88 12.5161 74.7313 12.4162 74.6682 12.2633L74.5453 11.965H73.8612L73.7365 12.2652C73.6739 12.4171 73.5247 12.5165 73.3608 12.5165H72.7191C72.5819 12.5165 72.454 12.4475 72.3785 12.3333C72.3034 12.2182 72.2901 12.0737 72.3444 11.948L73.4013 9.47736C73.4653 9.32774 73.6131 9.23015 73.7765 9.23015H74.653C74.8164 9.23015 74.9633 9.32728 75.0282 9.47689L75.2496 9.9934V9.63847C75.2496 9.41337 75.4319 9.23061 75.6575 9.23061H76.6219C76.7802 9.23061 76.9252 9.3236 76.9925 9.46769L77.3787 10.3064L77.7295 9.47966C77.793 9.32867 77.9412 9.23061 78.1042 9.23061H79.0884C79.1712 9.23061 79.2435 9.26146 79.3084 9.30381C79.3729 9.26146 79.4451 9.23061 79.5285 9.23061H81.5006C81.577 9.23061 81.6446 9.25731 81.705 9.29368C81.7662 9.25731 81.8334 9.23061 81.9098 9.23061H83.2678C83.619 9.23061 83.9095 9.24304 84.1871 9.40324C84.2152 9.42027 84.2354 9.44191 84.2608 9.46032C84.327 9.3259 84.4633 9.23061 84.624 9.23061H85.2266C85.4305 9.23061 85.5925 9.38253 85.6224 9.57725C85.8867 9.34846 86.2467 9.23061 86.7309 9.23061H87.3022C87.3929 9.23061 87.4781 9.26054 87.5457 9.31163C87.6143 9.26008 87.6995 9.23061 87.7897 9.23061H88.674C88.837 9.23061 88.9838 9.32821 89.0488 9.47782L89.2656 9.98511V9.63847C89.2656 9.41337 89.4483 9.23061 89.6739 9.23061H90.5729C90.7161 9.23061 90.8482 9.30519 90.9219 9.42764L91.2027 9.89304V9.63801C91.2027 9.41291 91.3859 9.23015 91.6115 9.23015H92.2154C92.441 9.23015 92.6233 9.41291 92.6233 9.63801V12.1087C92.6233 12.3338 92.4401 12.5165 92.2154 12.5165H91.3795C91.2354 12.5165 91.1033 12.4419 91.0291 12.3195L90.6669 11.7188V12.1087C90.6669 12.3338 90.4836 12.5165 90.259 12.5165H89.057C88.8927 12.5165 88.7449 12.4175 88.6805 12.2656L88.5557 11.9655H87.8754L87.7547 12.2615C87.6935 12.4157 87.5434 12.517 87.3782 12.517H86.6868C86.4239 12.517 85.9534 12.4696 85.6178 12.1883C85.5796 12.3743 85.4231 12.517 85.2256 12.517H84.6226C84.5558 12.517 84.4946 12.4967 84.438 12.4677C84.3823 12.4967 84.322 12.517 84.2548 12.517H83.6591C83.4349 12.517 83.2526 12.3361 83.2508 12.1123L83.2485 11.8007L83.2494 11.7464C83.2494 11.7132 83.2503 11.6635 83.2476 11.6216C83.2204 11.6198 83.184 11.6184 83.1329 11.6184H82.9078V12.1091C82.9078 12.3342 82.7251 12.517 82.5 12.517H81.9089C81.8325 12.517 81.7657 12.4903 81.704 12.4539C81.6437 12.4903 81.5761 12.517 81.4996 12.517H79.5275C79.4442 12.517 79.372 12.4857 79.3075 12.4438C79.2426 12.4857 79.1703 12.517 79.0875 12.517H78.4821C78.2565 12.517 78.0743 12.3347 78.0743 12.1096V12.0995L77.996 12.2744C77.9306 12.4221 77.7852 12.5174 77.6231 12.5174H77.1043C76.9432 12.5174 76.7968 12.4217 76.7319 12.2739ZM93.0266 16.7687H91.8766C91.7081 16.7687 91.5641 16.666 91.5014 16.5206C91.2773 16.6794 90.9808 16.7687 90.6139 16.7687H89.464C89.3991 16.7687 89.3411 16.7507 89.2868 16.7245C89.2329 16.7507 89.1744 16.7687 89.11 16.7687H87.1397C87.0739 16.7687 87.0136 16.7507 86.9593 16.7226C86.9045 16.7498 86.8451 16.7687 86.7797 16.7687H86.1873C85.9613 16.7687 85.779 16.5859 85.779 16.3608V16.0018C85.7799 15.9668 85.7799 15.9134 85.7771 15.8696C85.75 15.8678 85.7118 15.866 85.6574 15.866H85.4346V16.3608C85.4346 16.5864 85.2519 16.7687 85.0268 16.7687H84.4334C84.2074 16.7687 84.0251 16.5859 84.0251 16.3608V15.7329C83.8156 15.8577 83.5265 15.9396 83.1279 15.9396H82.7996V16.3608C82.7996 16.5864 82.6169 16.7687 82.3913 16.7687H81.2437C81.1272 16.7687 81.0158 16.719 80.9385 16.632L80.5108 16.1504L80.0602 16.6384C79.9828 16.7217 79.8746 16.7696 79.7609 16.7696H77.4219C77.1964 16.7696 77.0141 16.5864 77.0141 16.3613V13.8906C77.0141 13.6646 77.1968 13.4823 77.4219 13.4823H79.7964C79.9128 13.4823 80.0229 13.5311 80.0997 13.6177L80.5288 14.095L80.9758 13.6126C81.0531 13.5293 81.1613 13.4823 81.275 13.4823H83.1615C83.5749 13.4823 83.8658 13.5739 84.0725 13.7093C84.1392 13.5758 84.2737 13.4823 84.4334 13.4823H85.7969C86.1109 13.4823 86.4147 13.4943 86.6996 13.6467C86.7305 13.6646 86.7503 13.6881 86.7788 13.7074C86.846 13.5753 86.9791 13.4823 87.1383 13.4823H89.1086C89.2614 13.4823 89.3903 13.5702 89.4603 13.695C89.6546 13.5633 89.9124 13.4823 90.2374 13.4823H91.4204C91.5986 13.4823 91.745 13.5969 91.8016 13.7548C92.0041 13.5905 92.2808 13.4823 92.6495 13.4823H93.8335C94.0586 13.4823 94.2409 13.6651 94.2409 13.8906V14.4163C94.2409 14.5604 94.1673 14.687 94.0545 14.7598C94.0577 14.7634 94.0623 14.7676 94.0665 14.7717C94.269 14.9798 94.3611 15.2367 94.3611 15.5819C94.3611 16.3249 93.8625 16.7696 93.0266 16.7687Z" fill="#016FD0"/>
<path d="M83.8618 10.9621C84.0155 10.9014 84.2779 10.6974 84.2779 10.3038C84.2779 10.0281 84.1656 9.86697 83.9796 9.75649C83.7881 9.64601 83.5658 9.63818 83.2643 9.63818H81.9062V12.1088H82.4973V11.2107H83.1303C83.343 11.2107 83.4746 11.2296 83.5607 11.3161C83.668 11.4349 83.6537 11.6485 83.6537 11.7972L83.6565 12.1088H84.2521V11.6232C84.2521 11.4027 84.2379 11.2931 84.1541 11.1702C84.1016 11.0979 83.9911 11.0114 83.8618 10.9621ZM83.5064 10.6509C83.4245 10.7002 83.3287 10.7016 83.2141 10.7016H82.4964L82.4969 10.1533H83.2242C83.3264 10.1533 83.4341 10.1584 83.5041 10.198C83.5805 10.2339 83.6279 10.3103 83.6279 10.4162C83.6279 10.5239 83.5823 10.6109 83.5064 10.6509Z" fill="#016FD0"/>
<path d="M85.2256 9.63916H84.623V12.1098H85.2256V9.63916Z" fill="#016FD0"/>
<path d="M91.6089 9.63916V11.3599L90.5704 9.63916H89.6714V11.9758L88.6715 9.63916H87.7872L86.953 11.5818H86.6883C86.5341 11.5818 86.3675 11.5523 86.2768 11.4543C86.1659 11.33 86.1143 11.1389 86.1143 10.8747C86.1143 10.6151 86.1829 10.419 86.2837 10.3149C86.4006 10.2008 86.5217 10.1686 86.7385 10.1686H87.2978V9.63916H86.7266C86.3196 9.63916 86.0199 9.72985 85.8298 9.92687C85.5766 10.1916 85.5117 10.5267 85.5117 10.8931C85.5117 11.342 85.6204 11.6264 85.8284 11.8364C86.0337 12.0458 86.397 12.1093 86.6847 12.1098H87.3761L87.598 11.5588H88.8243L89.0545 12.1098H90.2564V10.2556L91.3769 12.1098H92.2129V9.63916H91.6089ZM87.8093 11.0432L88.2148 10.0585L88.6241 11.0432H87.8093Z" fill="#016FD0"/>
<path d="M86.7407 10.5762C86.6017 10.5757 86.5874 10.5905 86.5704 10.6066C86.5649 10.6144 86.5234 10.7032 86.5234 10.8745C86.5234 11.0439 86.5506 11.1254 86.5704 11.1622C86.5911 11.1677 86.6293 11.1742 86.6864 11.1742L86.9423 10.5762H86.7407Z" fill="#016FD0"/>
<path d="M89.107 14.4011V13.8901H87.1367V16.3612H89.107V15.8489L87.7241 15.8457V15.3549H89.0729V14.8504H87.7241V14.4011H89.107Z" fill="#016FD0"/>
<path d="M83.1614 13.8911H81.2749L80.5236 14.7004L79.7963 13.8911H77.4219V16.3618H79.7609L80.5167 15.5437L81.2441 16.3618H82.3917V15.5332H83.1282C83.6443 15.5332 84.1562 15.3914 84.1562 14.705C84.1562 14.0209 83.63 13.8902 83.1614 13.8911ZM79.4621 15.8476H78.0111V15.3559H79.307V14.8514H78.0111V14.4021H79.4911L80.137 15.1216L79.4621 15.8476ZM81.8034 16.1371L80.8965 15.1299L81.8034 14.1558V16.1371ZM83.154 15.0305H82.3917V14.4012H83.1614C83.375 14.4012 83.5223 14.4882 83.5223 14.7045C83.5223 14.9186 83.3814 15.0314 83.154 15.0305Z" fill="#016FD0"/>
<path d="M86.3914 15.2127C86.5461 15.151 86.8099 14.9503 86.8108 14.5549C86.8108 14.2731 86.6934 14.1185 86.5079 14.0061C86.3127 13.9026 86.0954 13.8901 85.7967 13.8901H84.4336V16.3608H85.0265V15.4585H85.6572C85.8726 15.4585 86.0038 15.4797 86.0904 15.5681C86.1999 15.6832 86.1856 15.9032 86.1856 16.0519V16.3608H86.7781V15.871C86.7763 15.6532 86.7643 15.5409 86.6801 15.4203C86.6303 15.349 86.5222 15.2606 86.3914 15.2127ZM86.0356 14.9056C85.9564 14.9526 85.8583 14.9567 85.7433 14.9567H85.0256V14.4016H85.7529C85.857 14.4016 85.9628 14.4039 86.0347 14.4462C86.1111 14.4863 86.1566 14.5632 86.1566 14.6686C86.1566 14.774 86.1111 14.8601 86.0356 14.9056Z" fill="#016FD0"/>
<path d="M91.3638 15.0571C91.228 14.9227 91.0079 14.8674 90.6875 14.8601L90.3703 14.8509C90.2695 14.8509 90.2032 14.8444 90.1402 14.8228C90.0661 14.7947 90.0113 14.7321 90.0113 14.6386C90.0113 14.5604 90.0352 14.501 90.1006 14.4605C90.1595 14.4204 90.229 14.4158 90.3372 14.4158H91.4199V13.8901H90.2368C89.6172 13.8901 89.3926 14.2667 89.3926 14.6258C89.3926 15.407 90.0845 15.372 90.636 15.3899C90.7395 15.3899 90.8012 15.407 90.8463 15.4447C90.8878 15.4797 90.9181 15.5359 90.9181 15.6081C90.9181 15.6753 90.8896 15.7315 90.8491 15.7692C90.7994 15.8162 90.7197 15.8305 90.6083 15.8305H89.463V16.3603H90.6129C91.2082 16.3603 91.541 16.1122 91.541 15.5805C91.541 15.3269 91.4788 15.1759 91.3638 15.0571Z" fill="#016FD0"/>
<path d="M78.1019 9.63818L77.3925 11.3143L76.6196 9.63818H75.6556V11.9776L74.6507 9.63818H73.7742L72.7168 12.1088H73.3581L73.5873 11.5578H74.8164L75.0434 12.1088H76.2448V10.1722L77.1025 12.1084L77.6222 12.1088L78.4784 10.174L78.4807 12.1088H79.0861V9.63818H78.1019ZM73.7977 11.0431L74.1991 10.0585L74.6028 11.0431H73.7977Z" fill="#016FD0"/>
<path d="M81.4975 10.1528V9.63818H79.5254V12.1093H81.4975V11.5983H80.1155V11.1044H81.4648V10.5985H80.1155V10.1528H81.4975Z" fill="#016FD0"/>
<path d="M93.7759 15.0566C93.641 14.9222 93.4205 14.8669 93.1001 14.8596L92.7824 14.8504C92.6826 14.8504 92.6158 14.8439 92.5523 14.8223C92.4791 14.7942 92.4238 14.7316 92.4238 14.6382C92.4238 14.5599 92.4478 14.5005 92.5127 14.46C92.5721 14.42 92.642 14.4154 92.7498 14.4154H93.8329V13.8896H92.649C92.0303 13.8896 91.8047 14.2662 91.8047 14.6253C91.8047 15.4065 92.497 15.3715 93.049 15.3894C93.1521 15.3894 93.2133 15.4065 93.2594 15.4442C93.2999 15.4792 93.3307 15.5354 93.3307 15.6076C93.3307 15.6748 93.3017 15.731 93.2621 15.7688C93.2119 15.8157 93.1323 15.83 93.0209 15.83H91.876V16.3598H93.026C93.6212 16.3598 93.9531 16.1117 93.9531 15.58C93.9531 15.3264 93.8919 15.1754 93.7759 15.0566Z" fill="#016FD0"/>
</g>
<path d="M129.52 4.3335H106.48C105.663 4.3335 105 4.99624 105 5.81377V19.5989C105 20.4165 105.663 21.0792 106.48 21.0792H129.52C130.337 21.0792 131 20.4165 131 19.5989V5.81377C131 4.99624 130.337 4.3335 129.52 4.3335Z" stroke="#ABABAB" stroke-width="0.54494" stroke-linecap="round" stroke-linejoin="round"/>
<path d="M116.711 18.8083C120.021 18.7848 122.685 16.0824 122.662 12.7724C122.638 9.46244 119.936 6.79821 116.626 6.82171C113.316 6.84521 110.652 9.54754 110.675 12.8575C110.699 16.1675 113.401 18.8318 116.711 18.8083Z" fill="white"/>
<path d="M116.677 18.9149C113.243 18.9313 110.416 16.1487 110.416 12.7615C110.416 9.05983 113.243 6.49941 116.677 6.5H118.287C121.681 6.49941 124.778 9.05862 124.778 12.7615C124.778 16.1475 121.681 18.9149 118.287 18.9149H116.677ZM116.691 7.01343C113.553 7.01464 111.01 9.55808 111.009 12.6967C111.01 15.835 113.553 18.3779 116.691 18.3785C119.83 18.3779 122.374 15.835 122.374 12.6967C122.374 9.55808 119.83 7.01464 116.691 7.01343ZM115.401 16.0572V9.3353C114.051 9.85538 113.093 11.1625 113.089 12.6967C113.093 14.2306 114.051 15.5378 115.401 16.0572ZM120.294 12.6967C120.291 11.1619 119.332 9.85294 117.98 9.33468V16.0585C119.332 15.5396 120.291 14.2318 120.294 12.6967Z" fill="#004A98"/>
<defs>
<clipPath id="clip0_707_4046">
<rect width="26" height="26" fill="white" transform="translate(35.666)"/>
</clipPath>
<clipPath id="clip1_707_4046">
<rect width="26" height="26" fill="white" transform="translate(70.334)"/>
</clipPath>
</defs>
</svg>
