<svg width="30" height="30" viewBox="0 0 30 30" fill="none" xmlns="http://www.w3.org/2000/svg">
<path d="M20 2.5H10C5.625 2.5 3.75 5 3.75 8.75V21.25C3.75 25 5.625 27.5 10 27.5H20C24.375 27.5 26.25 25 26.25 21.25V8.75C26.25 5 24.375 2.5 20 2.5ZM10 15.3125H15C15.5125 15.3125 15.9375 15.7375 15.9375 16.25C15.9375 16.7625 15.5125 17.1875 15 17.1875H10C9.4875 17.1875 9.0625 16.7625 9.0625 16.25C9.0625 15.7375 9.4875 15.3125 10 15.3125ZM20 22.1875H10C9.4875 22.1875 9.0625 21.7625 9.0625 21.25C9.0625 20.7375 9.4875 20.3125 10 20.3125H20C20.5125 20.3125 20.9375 20.7375 20.9375 21.25C20.9375 21.7625 20.5125 22.1875 20 22.1875ZM23.125 11.5625H20.625C18.725 11.5625 17.1875 10.025 17.1875 8.125V5.625C17.1875 5.1125 17.6125 4.6875 18.125 4.6875C18.6375 4.6875 19.0625 5.1125 19.0625 5.625V8.125C19.0625 8.9875 19.7625 9.6875 20.625 9.6875H23.125C23.6375 9.6875 24.0625 10.1125 24.0625 10.625C24.0625 11.1375 23.6375 11.5625 23.125 11.5625Z" fill="#111111"/>
</svg>
