<svg width="26" height="26" viewBox="0 0 26 26" fill="none" xmlns="http://www.w3.org/2000/svg">
<path fill-rule="evenodd" clip-rule="evenodd" d="M2.72897 8.47472C2.1665 9.5023 2.1665 10.7419 2.1665 13.221V14.8688C2.1665 19.0947 2.1665 21.2077 3.43571 22.5206C4.70491 23.8334 6.74766 23.8334 10.8332 23.8334H15.1665C19.252 23.8334 21.2948 23.8334 22.564 22.5206C23.8332 21.2077 23.8332 19.0947 23.8332 14.8688V13.221C23.8332 10.7419 23.8332 9.5023 23.2707 8.47472C22.7082 7.44714 21.6806 6.80939 19.6255 5.53388L17.4588 4.18919C15.2863 2.8409 14.2001 2.16675 12.9998 2.16675C11.7996 2.16675 10.7133 2.8409 8.54087 4.18919L6.37421 5.53388C4.31903 6.80939 3.29144 7.44714 2.72897 8.47472ZM9.74984 18.6876C9.30111 18.6876 8.93734 19.0513 8.93734 19.5001C8.93734 19.9488 9.30111 20.3126 9.74984 20.3126H16.2498C16.6986 20.3126 17.0623 19.9488 17.0623 19.5001C17.0623 19.0513 16.6986 18.6876 16.2498 18.6876H9.74984Z" fill="white"/>
</svg>
