<svg width="26" height="26" viewBox="0 0 26 26" fill="none" xmlns="http://www.w3.org/2000/svg">
<path fill-rule="evenodd" clip-rule="evenodd" d="M23.8337 13.0001C23.8337 18.9832 18.9834 23.8334 13.0003 23.8334C7.01724 23.8334 2.16699 18.9832 2.16699 13.0001C2.16699 7.017 7.01724 2.16675 13.0003 2.16675C18.9834 2.16675 23.8337 7.017 23.8337 13.0001ZM13.0003 19.2292C13.4491 19.2292 13.8128 18.8655 13.8128 18.4167V11.9167C13.8128 11.468 13.4491 11.1042 13.0003 11.1042C12.5516 11.1042 12.1878 11.468 12.1878 11.9167V18.4167C12.1878 18.8655 12.5516 19.2292 13.0003 19.2292ZM13.0003 7.58341C13.5986 7.58341 14.0837 8.06844 14.0837 8.66675C14.0837 9.26506 13.5986 9.75008 13.0003 9.75008C12.402 9.75008 11.917 9.26506 11.917 8.66675C11.917 8.06844 12.402 7.58341 13.0003 7.58341Z" fill="white"/>
</svg>
