<svg width="22" height="22" viewBox="0 0 22 22" fill="none" xmlns="http://www.w3.org/2000/svg">
<path fill-rule="evenodd" clip-rule="evenodd" d="M20.1666 10.9999C20.1666 16.0625 16.0625 20.1666 10.9999 20.1666C5.93731 20.1666 1.83325 16.0625 1.83325 10.9999C1.83325 5.93731 5.93731 1.83325 10.9999 1.83325C16.0625 1.83325 20.1666 5.93731 20.1666 10.9999ZM10.9999 16.2708C11.3796 16.2708 11.6874 15.9629 11.6874 15.5833V10.0833C11.6874 9.70356 11.3796 9.39575 10.9999 9.39575C10.6202 9.39575 10.3124 9.70356 10.3124 10.0833V15.5833C10.3124 15.9629 10.6202 16.2708 10.9999 16.2708ZM10.9999 6.41658C11.5062 6.41658 11.9166 6.82699 11.9166 7.33325C11.9166 7.83951 11.5062 8.24992 10.9999 8.24992C10.4937 8.24992 10.0833 7.83951 10.0833 7.33325C10.0833 6.82699 10.4937 6.41658 10.9999 6.41658Z" fill="#111111"/>
</svg>
