<svg width="22" height="22" viewBox="0 0 22 22" fill="none" xmlns="http://www.w3.org/2000/svg">
<path d="M1.8335 11C1.8335 7.54304 1.8335 5.81456 2.90744 4.74061C3.98138 3.66667 5.70986 3.66667 9.16683 3.66667H12.8335C16.2905 3.66667 18.0189 3.66667 19.0929 4.74061C20.1668 5.81456 20.1668 7.54304 20.1668 11C20.1668 14.457 20.1668 16.1855 19.0929 17.2594C18.0189 18.3333 16.2905 18.3333 12.8335 18.3333H9.16683C5.70986 18.3333 3.98138 18.3333 2.90744 17.2594C1.8335 16.1855 1.8335 14.457 1.8335 11Z" stroke="white" stroke-width="1.375"/>
<path d="M5.5 7.33333L7.47899 8.98249C9.16257 10.3855 10.0044 11.087 11 11.087C11.9956 11.087 12.8374 10.3855 14.521 8.98248L16.5 7.33333" stroke="white" stroke-width="1.375" stroke-linecap="round"/>
</svg>
