<svg width="22" height="22" viewBox="0 0 22 22" fill="none" xmlns="http://www.w3.org/2000/svg">
<path d="M1.8335 14.6667C1.8335 12.074 1.8335 10.7776 2.63895 9.97217C3.44441 9.16672 4.74077 9.16672 7.3335 9.16672H14.6668C17.2596 9.16672 18.5559 9.16672 19.3614 9.97217C20.1668 10.7776 20.1668 12.074 20.1668 14.6667C20.1668 17.2594 20.1668 18.5558 19.3614 19.3613C18.5559 20.1667 17.2596 20.1667 14.6668 20.1667H7.3335C4.74077 20.1667 3.44441 20.1667 2.63895 19.3613C1.8335 18.5558 1.8335 17.2594 1.8335 14.6667Z" stroke="white" stroke-width="1.375"/>
<path d="M5.5 9.16668V7.33334C5.5 4.29578 7.96243 1.83334 11 1.83334C14.0376 1.83334 16.5 4.29578 16.5 7.33334V9.16668" stroke="white" stroke-width="1.375" stroke-linecap="round"/>
<path d="M7.3335 14.6667H7.34175M10.9919 14.6667H11.0002M14.6586 14.6667H14.6668" stroke="white" stroke-width="1.83333" stroke-linecap="round" stroke-linejoin="round"/>
</svg>
