<svg width="912" height="517" viewBox="0 0 912 517" fill="none" xmlns="http://www.w3.org/2000/svg">
<g opacity="0.05">
<path d="M954.279 0.000169623C927.902 24.7554 907.281 57.8322 889.011 95.8819C861.588 152.994 839.037 229.442 815.715 308.5C792.086 388.599 767.662 471.375 736.629 539.302L739.231 538.664C770.005 470.878 794.262 388.667 817.736 309.095C841.038 230.102 863.571 153.718 890.905 96.7898C908.872 59.3729 929.104 26.8122 954.854 2.34856L954.279 0.000169623ZM280.128 651.169C189.284 619.433 91.645 589.425 0.643354 599.839L1.15903 601.944C90.6821 591.773 186.759 620.874 276.383 652.087L280.128 651.169Z" fill="white"/>
<path d="M957.919 14.8556C941.936 31.2133 927.692 51.2681 914.093 74.8774C873.958 144.555 845.525 237.925 817.821 328.897C800.899 384.465 784.25 439.138 765.385 486.924C758.296 504.88 750.99 521.805 743.338 537.657L745.98 537.01C753.384 521.558 760.466 505.106 767.342 487.69C786.237 439.829 802.899 385.116 819.833 329.509C847.503 238.646 875.903 145.387 915.912 75.9256C929.167 52.9146 943.025 33.3141 958.509 17.2617L957.919 14.8556ZM290.372 648.658C196.663 617.696 103.517 586.93 2.22478 606.293L2.72622 608.339C102.333 589.348 194.201 619.103 286.524 649.601L290.372 648.658Z" fill="white"/>
<path d="M961.66 30.1228C949.848 43.1792 938.792 58.5375 927.955 76.3205L927.951 76.3228C886.314 144.643 856.494 237.846 827.361 328.902C808.992 386.315 790.896 442.876 770.271 491.801C763.672 507.454 756.918 522.206 749.905 536.048L752.597 535.388C759.344 521.968 765.852 507.709 772.213 492.618C792.844 443.678 810.967 387.035 829.362 329.54C858.455 238.611 888.233 145.539 929.75 77.4144C940.228 60.2222 950.902 45.3202 962.266 32.5946L961.66 30.1228ZM303.521 645.436C298.897 644.04 294.292 642.643 289.705 641.252C196.559 612.991 110.462 586.885 3.93952 613.292L4.44257 615.345C110.474 589.084 196.271 615.1 289.093 643.262C292.554 644.313 296.026 645.366 299.508 646.42L303.521 645.436Z" fill="white"/>
<path d="M965.497 45.7788C957.479 55.2956 949.689 66.0056 941.94 78.0074C899.009 144.496 867.76 237.489 837.153 328.576C817.175 388.031 797.469 446.673 774.995 496.519C768.97 509.883 762.833 522.523 756.5 534.432L759.231 533.763C765.277 522.298 771.145 510.171 776.911 497.384C799.441 447.412 819.157 388.737 839.147 329.25C869.713 238.284 900.92 145.414 943.705 79.1517C951.088 67.7165 958.504 57.4662 966.118 48.3146L965.497 45.7788ZM320.925 641.171C317.854 640.381 314.785 639.59 311.719 638.8C251.982 623.4 193.171 608.238 133.238 604.499C90.0102 601.802 47.0143 607.512 5.35432 619.064L5.85467 621.105C47.3192 609.601 90.1028 603.913 133.101 606.595C192.848 610.323 251.558 625.459 311.191 640.832L316.609 642.229L320.925 641.171Z" fill="white"/>
<path d="M969.377 61.613C962.166 70.7413 955.111 80.8943 948.061 92.1562C912.053 149.68 881.762 234.199 851.173 319.55C823.659 396.32 795.902 473.762 763.583 532.696L766.341 532.021C798.36 473.136 825.876 396.372 853.154 320.262C883.708 235.011 913.963 150.591 949.845 93.2686C956.522 82.6007 963.202 72.938 970.013 64.2079L969.377 61.613ZM336.336 637.395C324.323 634.763 312.616 632.115 301.159 629.524C198.173 606.231 115.23 587.475 6.717 624.624L7.22048 626.679C115.303 589.649 198.001 608.348 300.692 631.574C310.82 633.865 321.141 636.2 331.704 638.529L336.336 637.395Z" fill="white"/>
<path d="M973.332 77.7503C966.915 86.3827 960.596 95.8678 954.26 106.276C918.992 164.209 890.375 241.389 861.554 319.119C833.373 395.126 804.992 471.657 770.042 531.113L772.891 530.415C807.461 471.051 835.59 395.191 863.526 319.847C892.308 242.221 920.886 165.145 956.059 107.368C962.02 97.577 967.963 88.6103 973.983 80.4098L973.332 77.7503ZM357.369 632.241C340.698 629.287 324.706 626.282 309.241 623.374C199.896 602.82 116.759 587.202 8.06494 630.125L8.57197 632.194C116.891 589.368 199.794 604.939 308.855 625.44C322.877 628.076 337.331 630.793 352.322 633.477L357.369 632.241Z" fill="white"/>
<path d="M977.373 94.2416C973.008 100.443 968.663 107.063 964.302 114.126C930.44 168.963 901.803 242.498 872.815 316.935C843.073 393.308 812.958 470.629 776.511 529.528L779.42 528.815C815.476 469.975 845.31 393.371 874.78 317.697C903.735 243.344 932.339 169.893 966.091 115.233C970.079 108.774 974.053 102.69 978.039 96.9606L977.373 94.2416ZM383.1 625.935L382.388 625.844C358.901 622.842 336.338 619.382 314.46 616.027C209.336 599.907 119.956 586.212 9.49614 635.967L10.0061 638.048C120.075 588.357 209.245 602.021 314.143 618.107C334.534 621.234 355.52 624.452 377.441 627.322L383.1 625.935Z" fill="white"/>
<path d="M981.45 110.88C976.576 118.19 971.718 126.035 966.821 134.446C937.471 184.854 911.253 249.156 884.634 314.443C853.302 391.29 821.412 469.503 783.254 527.875L786.228 527.147C823.962 468.806 855.545 391.355 886.58 315.237C913.17 250.025 939.357 185.795 968.639 135.505C973.158 127.744 977.64 120.472 982.132 113.66L981.45 110.879L981.45 110.88ZM412.277 618.785C401.05 617.279 390.046 615.903 379.334 614.781C362.655 613.035 346.691 611.206 331.155 609.428C214.067 596.019 121.175 585.391 10.7646 641.142L11.2784 643.238C121.361 587.525 214.045 598.132 330.913 611.515C346.578 613.31 362.674 615.153 379.115 616.875C388.094 617.815 397.289 618.936 406.655 620.163L412.277 618.785Z" fill="white"/>
<path d="M985.601 127.819C981.465 134.313 977.323 141.198 973.138 148.5C946.019 195.826 921.345 253.808 896.28 312.709C863.563 389.588 830.177 468.033 789.864 526.256L792.938 525.503C832.769 467.313 865.82 389.655 898.215 313.531C923.253 254.693 947.901 196.774 974.965 149.544C978.769 142.906 982.536 136.615 986.295 130.652L985.601 127.819ZM441.768 611.558C419.305 608.381 397.314 605.463 376.239 603.726C368.592 603.096 361.108 602.468 353.777 601.854C213.454 590.093 128.896 583.021 12.4181 647.889L12.938 650.01C129.177 585.153 213.517 592.208 353.599 603.949C360.929 604.563 368.413 605.19 376.06 605.82C395.496 607.422 415.675 610.022 436.274 612.904L441.768 611.558Z" fill="white"/>
<path d="M989.799 144.948C986.375 150.535 982.935 156.391 979.455 162.535C955.166 205.41 932.246 256.916 908.843 309.508C874.416 386.872 838.939 466.587 796.473 524.636L799.637 523.861C841.579 465.818 876.683 386.939 910.759 310.361C934.122 257.86 957.003 206.443 981.288 163.574C984.388 158.102 987.455 152.86 990.506 147.835L989.799 144.948ZM470.703 604.467C436.024 599.485 401.013 594.514 365.325 592.254C279.031 586.788 213.808 584.811 152.048 597.391C106.4 606.69 62.6836 623.936 13.8139 653.586L14.3387 655.728C63.222 625.998 106.89 608.734 152.472 599.449C213.984 586.919 279.065 588.897 365.188 594.351C399.059 596.495 432.31 601.085 465.245 605.805L470.703 604.467Z" fill="white"/>
<path d="M994.032 162.221C991.295 166.826 988.537 171.603 985.747 176.562C964.091 215.054 943.138 260.169 921.653 306.426C885.552 384.154 847.949 465.106 803.136 523.003L806.41 522.201C850.663 464.267 887.847 384.213 923.563 307.313C945.038 261.079 965.982 215.985 987.583 177.59C989.993 173.306 992.379 169.158 994.747 165.141L994.032 162.221ZM499.72 597.357C496.187 596.799 492.653 596.237 489.117 595.675C449.706 589.409 410.018 583.1 369.998 581.64C280.347 578.371 214.075 579.625 152.072 595.818C106.644 607.682 63.5437 627.556 15.2703 659.528L15.8024 661.699C64.1357 629.613 107.218 609.705 152.608 597.849C214.366 581.72 280.469 580.476 369.921 583.737C409.775 585.19 449.419 591.493 488.787 597.752L494.441 598.65L499.72 597.357Z" fill="white"/>
<path d="M998.28 179.558C995.026 185.166 991.731 191.011 988.372 197.102C972.064 226.679 955.12 261.6 937.339 298.244C899.212 376.82 857.231 463.328 809.83 521.364L813.21 520.535C860.056 462.329 901.525 376.872 939.232 299.164C957.019 262.506 973.97 227.573 990.21 198.119C993.186 192.722 996.112 187.519 999.002 182.504L998.28 179.558ZM525.561 591.024C515.191 589.314 504.857 587.524 494.599 585.746C461.076 579.933 428.355 574.259 397.801 572.017C337.508 567.593 277.728 568.52 219.927 578.599C162.1 588.682 106.267 607.924 53.8979 640.127C40.563 648.327 28.3346 656.763 16.6969 665.351L17.2399 667.567C29.0575 658.821 41.4665 650.238 55.0036 641.914C107.127 609.862 162.711 590.708 220.287 580.668C277.888 570.625 337.501 569.704 397.645 574.117C428.127 576.354 460.781 582.016 494.235 587.816C502.903 589.319 511.626 590.831 520.377 592.295L525.561 591.024Z" fill="white"/>
<path d="M1002.53 196.919C999.903 201.516 997.234 206.261 994.517 211.161C981.339 234.93 967.287 262.835 952.319 292.556C913.161 370.317 867.733 460.519 816.395 519.754L819.915 518.891C870.647 459.424 915.482 370.391 954.201 293.504C969.195 263.73 983.271 235.777 996.355 212.177C998.69 207.964 1000.99 203.868 1003.26 199.881L1002.53 196.919ZM551.423 584.687C534.468 581.969 517.538 578.915 500.835 575.902C460.663 568.655 421.797 561.643 386.965 560.084C315.92 556.905 251.702 562.721 191.159 580.317C130.819 597.855 74.1473 627.088 18.0243 670.765L18.573 673.004L18.7053 672.9C74.8169 629.125 131.451 599.86 191.745 582.335C252.056 564.807 316.051 559.014 386.869 562.184C421.552 563.736 460.354 570.736 500.46 577.971C515.568 580.696 530.861 583.454 546.192 585.969L551.423 584.687Z" fill="white"/>
<path d="M1006.77 214.216C1004.73 217.8 1002.66 221.466 1000.56 225.224C990.965 242.363 980.149 263.133 968.296 285.888C929.27 360.819 878.997 457.343 823.514 518.01L827.121 517.126C882.008 456.097 931.571 360.951 970.162 286.855C981.986 264.154 992.777 243.433 1002.39 226.25C1004.12 223.17 1005.82 220.152 1007.5 217.189L1006.77 214.216ZM575.591 578.764C555.515 575.476 535.295 571.536 515.114 567.602C464.984 557.832 415.083 548.107 368.073 548.498C277.638 549.25 211.02 563.172 150.651 591.371C105.951 612.251 64.7081 640.948 19.7749 677.91L20.33 680.175C65.4421 643.005 106.772 614.184 151.544 593.27C211.625 565.206 277.972 551.35 368.09 550.6C414.894 550.211 464.685 559.915 514.704 569.665C533.287 573.286 551.901 576.913 570.41 580.034L575.591 578.764Z" fill="white"/>
<path d="M1010.98 231.389C1009.5 233.984 1008 236.621 1006.47 239.302C997.771 254.649 988.305 272.321 978.133 291.309C938.962 364.438 889.283 457.169 829.603 516.518L833.512 515.56C892.357 455.892 941.285 364.558 979.988 292.305C990.117 273.395 999.543 255.795 1008.31 240.341C1009.45 238.323 1010.59 236.332 1011.71 234.363L1010.98 231.389ZM598.378 573.18C574.676 569.275 550.679 564.208 526.585 559.12C469.942 547.158 412.755 535.08 357.412 537.656C264.198 541.994 198.329 561.795 139.526 595.428C98.9548 618.633 61.7812 648.404 21.3193 684.212L21.8861 686.525C62.5818 650.467 99.8916 620.521 140.577 597.251C199.092 563.783 264.668 544.076 357.506 539.756C412.585 537.193 469.641 549.243 526.153 561.177C548.642 565.926 571.045 570.656 593.213 574.445L598.378 573.18Z" fill="white"/>
<path d="M1015.15 248.387C1014.19 250.043 1013.22 251.715 1012.25 253.405C1004.85 266.231 996.953 280.479 988.56 295.618C949.215 366.599 898.971 457.236 837.31 514.629L841.43 513.619C902.119 455.88 951.554 366.711 990.398 296.635C998.776 281.52 1006.66 267.295 1014.07 254.452L1015.87 251.334L1015.15 248.387ZM619.803 567.93C592.823 563.548 565.42 557.316 537.679 551.004C472.804 536.245 406.086 521.067 338.419 528.078C189.202 543.539 113.418 604.239 22.7588 690.085L23.3359 692.44C114.086 606.44 189.641 545.604 338.634 530.167C405.946 523.192 472.5 538.333 537.213 553.055C563.332 558.997 589.153 564.869 614.616 569.201L619.803 567.93Z" fill="white"/>
<path d="M1019.26 265.157C1013.31 275.314 1007.19 286.006 1000.8 297.154C960.257 367.947 909.195 457.086 844.627 512.836L849.065 511.749C912.46 455.617 962.641 368.016 1002.63 298.198C1008.66 287.667 1014.46 277.541 1019.98 268.089L1019.26 265.157ZM639.674 563.06C608.902 558.236 577.879 550.484 546.355 542.606C476.58 525.17 404.36 507.123 326.793 518.704C181.294 540.427 110.324 610.215 24.4278 696.897L25.016 699.298C111.049 612.467 181.785 542.484 327.105 520.787C404.259 509.268 476.27 527.263 545.843 544.648C575.743 552.12 605.195 559.477 634.428 564.346L639.674 563.06Z" fill="white"/>
<path d="M1023.29 281.624L1023.25 281.691C1019.26 288.318 1014.79 295.81 1010.18 303.527C969.564 371.61 918.206 457.674 852.29 510.958L857.025 509.798C921.591 456.106 971.982 371.662 1011.99 304.602C1016.01 297.862 1019.93 291.301 1024 284.528L1023.29 281.624L1023.29 281.624ZM658.705 558.397C623.723 553.32 588.996 543.838 553.651 534.185C477.443 513.369 398.367 491.772 307.468 511.654C174.369 540.765 99.029 623.161 27.9236 700.926L25.9452 703.089L26.547 705.545L29.475 702.343C100.363 624.817 175.471 542.673 307.915 513.705C398.306 493.935 477.132 515.464 553.1 536.213C586.808 545.42 619.957 554.472 653.324 559.716L658.705 558.397Z" fill="white"/>
<path d="M1027.25 297.783C1024.97 301.471 1022.66 305.21 1020.32 308.99C978.307 376.969 927.827 458.634 860.633 508.913L865.796 507.648C931.346 456.951 980.803 376.933 1022.11 310.098C1024.08 306.917 1026.02 303.765 1027.95 300.648L1027.25 297.783L1027.25 297.783ZM677.414 553.812C635.468 548.706 595.523 536.772 555.299 524.752C471.928 499.839 387.352 474.565 281.043 508.641C170.721 544.002 102.993 622.22 37.7801 697.532C34.3456 701.498 30.9179 705.455 27.4915 709.399L28.106 711.907C31.8592 707.589 35.6129 703.255 39.3755 698.91C104.402 623.813 171.938 545.818 281.685 510.64C387.373 476.765 471.635 501.944 554.697 526.764C593.286 538.296 631.618 549.748 671.74 555.203L677.414 553.812Z" fill="white"/>
<path d="M1031.13 313.595C998.358 364.698 961.164 421.81 915.562 467.173C900.762 481.896 885.073 495.379 868.361 507.02L873.918 505.658C889.11 494.671 903.452 482.188 917.046 468.666C962.292 423.656 999.245 367.181 1031.82 316.409L1031.13 313.595ZM697.051 549C648.143 544.101 602.582 529.707 557.213 515.372C469.044 487.511 381.59 459.876 271.418 502.198C171.561 540.557 110.401 616.171 50.0715 690.758C44.4057 697.763 38.7472 704.758 33.0645 711.713L36.4562 710.882C41.549 704.637 46.6253 698.361 51.707 692.079C111.859 617.711 172.84 542.319 272.175 504.16C381.656 462.104 468.76 489.628 556.577 517.377C600.268 531.183 644.135 545.041 691.052 550.47L697.051 549Z" fill="white"/>
<path d="M1034.9 329.008C1000.95 379.903 962.673 433.396 916.265 474.46C903.557 485.704 890.236 496.018 876.225 505.093L882.28 503.609C894.59 495.289 906.363 486.027 917.655 476.035C963.761 435.239 1001.82 382.304 1035.58 331.776L1034.9 329.008ZM716.4 544.258C660.281 539.721 608.838 522.663 558.278 505.895C459.171 473.027 363.436 441.276 242.189 506.539C161.462 549.992 110.5 617.585 59.4384 685.311C53.2762 693.485 47.1116 701.659 40.8938 709.794L44.1432 708.998C49.8286 701.543 55.4728 694.058 61.1151 686.575C112.036 619.035 162.858 551.626 243.187 508.388C363.634 443.557 458.946 475.166 557.615 507.89C606.453 524.086 656.113 540.553 710.078 545.807L716.4 544.258Z" fill="white"/>
<path d="M1038.59 344.061C1003.75 394.541 964.178 444.27 916.846 481.033C906.61 488.983 896.008 496.324 885.013 502.939L891.681 501.305C900.764 495.569 909.576 489.344 918.135 482.696C965.188 446.15 1004.57 396.894 1039.26 346.789L1038.59 344.061ZM735.325 539.621C673.314 535.608 616.267 516.009 560.606 496.886C448.958 458.527 342.867 422.077 213.03 516.324C149.929 562.128 107.969 622.137 65.896 682.307C59.8742 690.919 53.8496 699.534 47.7609 708.111L50.8783 707.348C56.4932 699.42 62.0583 691.463 67.6205 683.509C109.592 623.484 151.451 563.619 214.264 518.024C343.212 424.422 448.801 460.699 559.92 498.876C613.773 517.379 668.922 536.324 728.7 541.245L735.325 539.621Z" fill="white"/>
<path d="M1042.18 358.682C1004.61 410.325 962.803 456.847 913.628 489.13C907.497 493.155 901.249 496.956 894.881 500.521L902.215 498.724C906.459 496.212 910.65 493.596 914.788 490.879C963.757 458.733 1005.41 412.599 1042.83 361.357L1042.18 358.682ZM754.402 534.946C744.605 534.63 734.579 533.812 724.312 532.455C668.07 525.027 615.464 506.32 564.303 488.127C447.445 446.57 338.094 407.685 209.45 511.053C151.716 557.445 113.896 615.851 75.6136 674.973C68.8542 685.412 62.0795 695.873 55.1788 706.294L58.1885 705.556C64.6596 695.758 71.0262 685.928 77.379 676.117C115.567 617.142 153.293 558.88 210.767 512.698C338.501 410.06 447.317 448.755 563.601 490.108C614.861 508.335 667.568 527.079 724.036 534.537C731.878 535.573 739.579 536.295 747.147 536.724L754.402 534.946Z" fill="white"/>
<path d="M1045.67 372.96C1004.56 426.657 958.623 470.323 905.753 497.857L913.918 495.856C963.63 468.279 1007.16 426.457 1046.32 375.578L1045.67 372.96ZM774.543 530.01C753.504 530.007 731.555 527.803 708.62 523.179C666.389 514.666 623.505 498.762 580.265 482.727C483.62 446.884 385.199 410.383 287.41 453.766C186.911 498.35 136.303 581.437 83.6981 667.804C76.1875 680.134 68.6354 692.532 60.892 704.894L63.8224 704.176C71.1702 692.414 78.3545 680.625 85.4981 668.895C137.926 582.818 188.365 500.009 288.269 455.689C385.268 412.656 483.283 449.006 579.529 484.701C622.832 500.76 665.78 516.688 708.199 525.239C728.336 529.298 747.719 531.505 766.4 532.005L774.543 530.01Z" fill="white"/>
<path d="M1049.01 386.557C1009.52 434.607 966.314 471.208 918.678 494.689L927.559 492.513C971.946 469.041 1012.44 434.117 1049.63 389.114L1049.01 386.557ZM794.87 525.029C762.21 525.82 727.79 521.567 691.459 511.92C656.837 502.727 621.149 488.861 584.894 474.775C486.087 436.388 383.074 396.366 284.351 444.106C187.961 490.719 138.341 576.954 86.8867 666.377C79.715 678.841 72.5075 691.366 65.1328 703.854L67.9811 703.156C74.9972 691.247 81.8694 679.308 88.7066 667.426C139.995 578.291 189.455 492.334 285.269 445.999C383.169 398.657 485.743 438.509 584.128 476.735L584.131 476.738C620.418 490.837 656.138 504.715 690.92 513.951C724.13 522.77 755.758 527.104 785.919 527.222L794.87 525.029Z" fill="white"/>
<path d="M1052.19 399.552C1015.88 440.321 976.161 470.884 933.341 491.096L942.873 488.76C982.288 468.682 1019.01 439.735 1052.8 402.03L1052.19 399.552ZM814.258 520.278C774.309 521.967 732.387 516.411 688.665 503.524C657.451 494.323 624.548 481.07 590.741 467.451C491.541 427.492 384.559 384.397 288.53 430.719C192.655 476.966 142.435 569.563 91.102 664.209C84.1543 677.019 77.1858 689.867 70.0812 702.642L72.8624 701.96C79.6441 689.739 86.3062 677.457 92.9492 665.209C144.116 570.867 194.175 478.57 289.448 432.612C384.633 386.698 491.167 429.611 589.95 469.403C623.807 483.042 656.757 496.314 688.068 505.544C728.466 517.451 767.346 523.132 804.572 522.651L814.258 520.278Z" fill="white"/>
<path d="M1055.21 411.875C1023.11 444.786 988.029 469.653 950.694 486.844L960.666 484.4C994.49 467.529 1026.39 444.248 1055.8 414.282L1055.21 411.875ZM832.756 515.745C786.058 518.26 737.395 511.345 687.841 495.53C658.658 486.215 627.569 473.205 595.426 459.753C494.283 417.427 382.723 370.741 286.127 420.399C192.307 468.63 144.869 562.735 96.1653 659.353C89.0857 673.397 81.9783 687.494 74.6988 701.51L77.4173 700.844C84.4047 687.359 91.2375 673.805 98.0454 660.3C146.593 563.993 193.878 470.19 287.091 422.272C382.821 373.059 493.904 419.545 594.613 461.69C626.8 475.16 657.932 488.188 687.2 497.529C733.36 512.262 778.759 519.309 822.54 518.248L832.756 515.745Z" fill="white"/>
</g>
</svg>
