<svg width="30" height="20" viewBox="0 0 30 20" fill="none" xmlns="http://www.w3.org/2000/svg">
<g clip-path="url(#clip0_707_3881)">
<path d="M9.64018 19.0548C14.5274 19.0548 18.4893 14.9928 18.4893 9.982C18.4893 4.97122 14.5274 0.90918 9.64018 0.90918C4.75292 0.90918 0.791016 4.97122 0.791016 9.982C0.791016 14.9928 4.75292 19.0548 9.64018 19.0548Z" fill="#EB001B"/>
<path d="M20.3296 19.0548C25.2169 19.0548 29.1788 14.9928 29.1788 9.982C29.1788 4.97122 25.2169 0.90918 20.3296 0.90918C15.4424 0.90918 11.4805 4.97122 11.4805 9.982C11.4805 14.9928 15.4424 19.0548 20.3296 19.0548Z" fill="#F79E1B"/>
<path d="M14.9831 2.73633C17.1138 4.39169 18.4857 7.01494 18.4857 9.96383C18.4857 12.9127 17.1138 15.5405 14.9831 17.1959C12.8524 15.5405 11.4805 12.9172 11.4805 9.96383C11.4805 7.01041 12.8568 4.39169 14.9831 2.73633Z" fill="#FF5F00"/>
</g>
<defs>
<clipPath id="clip0_707_3881">
<rect width="28.4091" height="18.1818" fill="white" transform="translate(0.794922 0.90918)"/>
</clipPath>
</defs>
</svg>
