<svg width="30" height="30" viewBox="0 0 30 30" fill="none" xmlns="http://www.w3.org/2000/svg">
<path fill-rule="evenodd" clip-rule="evenodd" d="M4.0625 27.5C4.0625 26.9822 4.48223 26.5625 5 26.5625H25C25.5178 26.5625 25.9375 26.9822 25.9375 27.5C25.9375 28.0178 25.5178 28.4375 25 28.4375H5C4.48223 28.4375 4.0625 28.0178 4.0625 27.5Z" fill="#111111"/>
<path d="M14.4001 18.6612L14.4001 18.6612L21.796 11.2653C20.7894 10.8464 19.5972 10.1582 18.4697 9.03068C17.342 7.90298 16.6537 6.71058 16.2348 5.7039L8.83882 13.0999L8.83879 13.0999C8.26166 13.6771 7.97307 13.9656 7.7249 14.2838C7.43213 14.6592 7.18113 15.0653 6.97634 15.495C6.80273 15.8593 6.67368 16.2465 6.41556 17.0208L5.05445 21.1042C4.92743 21.4852 5.0266 21.9053 5.31063 22.1894C5.59466 22.4734 6.01478 22.5726 6.39584 22.4455L10.4792 21.0844C11.2535 20.8263 11.6407 20.6973 12.005 20.5237C12.4347 20.3189 12.8408 20.0679 13.2162 19.7751C13.5343 19.5269 13.823 19.2383 14.4001 18.6612Z" fill="#111111"/>
<path d="M23.8482 9.21305C25.3839 7.67735 25.3839 5.18748 23.8482 3.65178C22.3125 2.11607 19.8226 2.11607 18.2869 3.65178L17.3999 4.53882C17.412 4.5755 17.4246 4.61268 17.4377 4.65035C17.7628 5.5875 18.3763 6.81601 19.5303 7.97002C20.6843 9.12403 21.9128 9.73748 22.85 10.0626C22.8875 10.0756 22.9245 10.0882 22.961 10.1003L23.8482 9.21305Z" fill="#111111"/>
</svg>
