<svg width="22" height="22" viewBox="0 0 22 22" fill="none" xmlns="http://www.w3.org/2000/svg">
<path d="M16.7363 3.21593C16.9932 3.32234 17.1607 3.57303 17.1607 3.85109V7.74018C17.1607 8.11988 16.8529 8.42768 16.4732 8.42768H12.5841C12.3061 8.42768 12.0554 8.26018 11.949 8.00328C11.8425 7.74638 11.9014 7.45067 12.098 7.25405L13.5674 5.78463C11.1535 4.77502 8.2648 5.25332 6.30077 7.21735C3.70541 9.81271 3.70541 14.0206 6.30077 16.616C8.89613 19.2113 13.104 19.2113 15.6994 16.616C17.2084 15.107 17.8405 13.0534 17.5941 11.0859C17.547 10.7091 17.8141 10.3655 18.1909 10.3183C18.5676 10.2711 18.9113 10.5383 18.9585 10.9151C19.2553 13.2856 18.4935 15.7664 16.6717 17.5883C13.5393 20.7206 8.46082 20.7206 5.3285 17.5883C2.19617 14.4559 2.19617 9.37741 5.3285 6.24508C7.83867 3.7349 11.5973 3.23693 14.6034 4.74859L15.9871 3.36496C16.1837 3.16833 16.4794 3.10952 16.7363 3.21593Z" fill="#9B9B9B"/>
</svg>
