<svg width="26" height="26" viewBox="0 0 26 26" fill="none" xmlns="http://www.w3.org/2000/svg">
<path fill-rule="evenodd" clip-rule="evenodd" d="M3.65898 5.50602C3.25 6.08872 3.25 7.82074 3.25 11.2848V12.9907C3.25 19.0986 7.84221 22.0627 10.7234 23.3213C11.505 23.6627 11.8958 23.8334 13 23.8334C14.1042 23.8334 14.495 23.6627 15.2766 23.3213C18.1578 22.0627 22.75 19.0986 22.75 12.9907V11.2848C22.75 7.82074 22.75 6.08872 22.341 5.50602C21.9321 4.92333 20.3035 4.36587 17.0463 3.25094L16.4258 3.03853C14.7279 2.45734 13.879 2.16675 13 2.16675C12.121 2.16675 11.2721 2.45734 9.5742 3.03852L8.95365 3.25094C5.69652 4.36587 4.06795 4.92333 3.65898 5.50602ZM16.3144 11.3746C16.6133 11.0398 16.5842 10.5262 16.2495 10.2273C15.9147 9.92848 15.4011 9.95755 15.1023 10.2923L11.8393 13.9468L10.8977 12.8923C10.5989 12.5576 10.0853 12.5285 9.75053 12.8273C9.4158 13.1262 9.38673 13.6398 9.68559 13.9746L11.2332 15.7079C11.3874 15.8805 11.6078 15.9792 11.8393 15.9792C12.0707 15.9792 12.2912 15.8805 12.4454 15.7079L16.3144 11.3746Z" fill="white"/>
</svg>
