<svg width="26" height="26" viewBox="0 0 26 26" fill="none" xmlns="http://www.w3.org/2000/svg">
<path fill-rule="evenodd" clip-rule="evenodd" d="M15.4687 2.33168C15.0675 2.16675 14.5589 2.16675 13.5417 2.16675C12.5244 2.16675 12.0158 2.16675 11.6146 2.33168C11.0797 2.55158 10.6547 2.97337 10.4331 3.50427C10.332 3.74662 10.2924 4.02846 10.2769 4.43957C10.2541 5.04374 9.94192 5.60297 9.41434 5.90526C8.88677 6.20754 8.24269 6.19625 7.70411 5.91374C7.33761 5.72149 7.07188 5.61459 6.80982 5.58035C6.23576 5.50534 5.65519 5.65973 5.19583 6.00955C4.85131 6.27191 4.59701 6.70905 4.08839 7.58334C3.57978 8.45763 3.32547 8.89477 3.26879 9.32206C3.19322 9.89178 3.34878 10.468 3.70126 10.9239C3.86214 11.1319 4.08825 11.3069 4.43918 11.5257C4.95507 11.8474 5.28701 12.3954 5.28698 13.0001C5.28695 13.6047 4.95502 14.1527 4.43918 14.4743C4.08819 14.6932 3.86205 14.8681 3.70115 15.0762C3.34867 15.5321 3.19311 16.1083 3.26869 16.678C3.32537 17.1053 3.57967 17.5425 4.08829 18.4167C4.5969 19.291 4.85121 19.7282 5.19573 19.9905C5.65509 20.3404 6.23566 20.4947 6.80971 20.4197C7.07175 20.3855 7.33747 20.2786 7.70394 20.0864C8.24256 19.8039 8.88669 19.7926 9.41429 20.0949C9.9419 20.3972 10.2541 20.9564 10.2769 21.5606C10.2924 21.9717 10.332 22.2536 10.4331 22.4959C10.6547 23.0268 11.0797 23.4486 11.6146 23.6685C12.0158 23.8334 12.5244 23.8334 13.5417 23.8334C14.5589 23.8334 15.0675 23.8334 15.4687 23.6685C16.0036 23.4486 16.4286 23.0268 16.6502 22.4959C16.7514 22.2535 16.791 21.9717 16.8064 21.5606C16.8292 20.9564 17.1414 20.3972 17.6689 20.0949C18.1965 19.7925 18.8407 19.8038 19.3793 20.0863C19.7458 20.2785 20.0115 20.3854 20.2735 20.4197C20.8476 20.4947 21.4281 20.3403 21.8875 19.9905C22.232 19.7281 22.4863 19.291 22.9949 18.4167C23.5035 17.5424 23.7578 17.1052 23.8145 16.678C23.8901 16.1082 23.7345 15.5321 23.3821 15.0762C23.2212 14.8681 22.995 14.6931 22.6441 14.4743C22.1282 14.1526 21.7963 13.6046 21.7963 13C21.7964 12.3954 22.1283 11.8475 22.6441 11.5259C22.9951 11.307 23.2213 11.132 23.3822 10.9239C23.7346 10.468 23.8902 9.89186 23.8146 9.32214C23.758 8.89485 23.5036 8.4577 22.995 7.58342C22.4864 6.70913 22.2321 6.27198 21.8876 6.00962C21.4282 5.65981 20.8477 5.50542 20.2736 5.58042C20.0116 5.61466 19.7458 5.72155 19.3794 5.91378C18.8408 6.19631 18.1966 6.2076 17.669 5.90529C17.1414 5.60298 16.8292 5.04371 16.8064 4.43951C16.7909 4.02843 16.7514 3.74661 16.6502 3.50427C16.4286 2.97337 16.0036 2.55158 15.4687 2.33168ZM13.5417 16.2501C15.3503 16.2501 16.8164 14.795 16.8164 13.0001C16.8164 11.2052 15.3503 9.75008 13.5417 9.75008C11.7331 9.75008 10.2669 11.2052 10.2669 13.0001C10.2669 14.795 11.7331 16.2501 13.5417 16.2501Z" fill="white"/>
</svg>
