<svg width="30" height="30" viewBox="0 0 30 30" fill="none" xmlns="http://www.w3.org/2000/svg">
<path d="M4.72251 4.56855C4.49621 5.01967 4.38491 5.57616 4.16231 6.68916L3.41491 10.4262C2.94167 12.7924 4.7515 15 7.16456 15C9.1291 15 10.774 13.5114 10.9695 11.5566L11.0558 10.6939C10.8519 13.0048 12.6733 15 14.9999 15C17.3423 15 19.1726 12.9775 18.9395 10.6467L19.0308 11.5566C19.2263 13.5114 20.8712 15 22.8357 15C25.2488 15 27.0586 12.7924 26.5854 10.4262L25.838 6.68916C25.6154 5.57618 25.5041 5.01966 25.2778 4.56855C24.8009 3.61799 23.9429 2.91459 22.9173 2.63343C22.4306 2.5 21.863 2.5 20.728 2.5H18.1249H9.27226C8.13723 2.5 7.56971 2.5 7.08297 2.63343C6.05736 2.91459 5.19935 3.61799 4.72251 4.56855Z" fill="white"/>
<path d="M22.8356 16.8749C23.8571 16.8749 24.806 16.6095 25.625 16.1486V17.4999C25.625 22.214 25.625 24.571 24.1605 26.0354C22.9817 27.2143 21.2245 27.4442 18.125 27.489V23.1249C18.125 21.9567 18.125 21.3725 17.8738 20.9374C17.7092 20.6524 17.4725 20.4157 17.1875 20.2511C16.7524 19.9999 16.1683 19.9999 15 19.9999C13.8317 19.9999 13.2476 19.9999 12.8125 20.2511C12.5275 20.4157 12.2908 20.6524 12.1262 20.9374C11.875 21.3725 11.875 21.9567 11.875 23.1249V27.489C8.77554 27.4442 7.01832 27.2143 5.83947 26.0354C4.375 24.571 4.375 22.214 4.375 17.4999V16.1486C5.19405 16.6094 6.14299 16.8749 7.16446 16.8749C8.6608 16.8749 10.0327 16.2954 11.0554 15.3399C12.0896 16.29 13.4706 16.8749 14.9998 16.8749C16.529 16.8749 17.9102 16.2899 18.9444 15.3396C19.9671 16.2953 21.3391 16.8749 22.8356 16.8749Z" fill="white"/>
</svg>
