<svg width="1920" height="1080" viewBox="0 0 1920 1080" fill="none" xmlns="http://www.w3.org/2000/svg">
<g clip-path="url(#clip0_120_1275)">
<rect width="1920" height="1080" fill="white"/>
<path d="M0 1080L1920 1080L1920 0L0 0L0 1080Z" fill="url(#paint0_linear_120_1275)"/>
<g opacity="0.7">
<circle cx="41.0334" cy="800.789" r="1.34887" fill="white"/>
<circle cx="1806.8" cy="295.248" r="1.34887" fill="white"/>
<circle cx="1391.96" cy="781.335" r="1.34887" fill="white"/>
<circle cx="1522.46" cy="170.922" r="1.34887" fill="white"/>
<circle cx="1367.79" cy="640.562" r="1.34887" fill="white"/>
<circle opacity="0.4" cx="973.575" cy="935.158" r="1.34887" fill="white"/>
<circle cx="1241.29" cy="527.893" r="1.34887" fill="white"/>
<circle opacity="0.4" cx="1414.92" cy="54.4864" r="1.34887" fill="white"/>
<circle cx="408.588" cy="55.0295" r="1.34887" fill="white"/>
<circle opacity="0.4" cx="1219.04" cy="1008.06" r="1.34887" fill="white"/>
<circle opacity="0.4" cx="703.797" cy="775.325" r="1.34887" fill="white"/>
<circle opacity="0.4" cx="1474.05" cy="194.374" r="1.34887" fill="white"/>
<circle cx="472.67" cy="59.3526" r="1.34887" fill="white"/>
<circle opacity="0.4" cx="38.6877" cy="634.781" r="1.34887" fill="white"/>
<circle opacity="0.4" cx="1864.61" cy="217.565" r="1.34887" fill="white"/>
<circle opacity="0.4" cx="1580.28" cy="1054.02" r="1.34887" fill="white"/>
<circle cx="754.836" cy="923.904" r="1.34887" fill="white"/>
<circle opacity="0.4" cx="181.365" cy="118.349" r="1.34887" fill="white"/>
<circle cx="1297.26" cy="876.121" r="1.34887" fill="white"/>
<circle cx="64.2185" cy="665.892" r="1.34887" fill="white"/>
<circle cx="1.34887" cy="-0.84299" r="1.34887" fill="white"/>
<circle cx="1246.77" cy="439.989" r="1.34887" fill="white"/>
<circle cx="1615.78" cy="999.284" r="1.34887" fill="white"/>
<circle opacity="0.4" cx="422.293" cy="173.589" r="1.34887" fill="white"/>
<circle cx="1677.64" cy="1035.77" r="1.34887" fill="white"/>
<circle cx="197.841" cy="593.224" r="1.34887" fill="white"/>
<circle cx="54.6096" cy="550.458" r="1.34887" fill="white"/>
<circle opacity="0.4" cx="283.385" cy="664.88" r="1.34887" fill="white"/>
<circle opacity="0.4" cx="1908.14" cy="149.542" r="1.34887" fill="white"/>
<circle cx="631.049" cy="116.057" r="1.34887" fill="white"/>
<circle opacity="0.4" cx="771.02" cy="673.82" r="1.34887" fill="white"/>
<circle opacity="0.4" cx="1428.63" cy="306.154" r="1.34887" fill="white"/>
<circle cx="782.828" cy="676.174" r="1.34887" fill="white"/>
<circle opacity="0.4" cx="22.6365" cy="812.094" r="1.34887" fill="white"/>
<circle opacity="0.4" cx="1042.77" cy="879.426" r="1.34887" fill="white"/>
<circle opacity="0.4" cx="436.832" cy="647.067" r="1.34887" fill="white"/>
<circle cx="519.014" cy="241.403" r="1.34887" fill="white"/>
<rect opacity="0.4" x="1300.72" y="678.832" width="1.34887" height="1.34887" fill="white"/>
<rect opacity="0.4" x="117.686" y="965.801" width="1.34887" height="1.34887" fill="white"/>
<rect x="1564.35" y="602.894" width="1.34887" height="1.34887" fill="white"/>
<rect opacity="0.4" x="76.603" y="659.732" width="1.34887" height="1.34887" fill="white"/>
<rect x="1488.11" y="324.371" width="1.34887" height="1.34887" fill="white"/>
<rect x="180.183" y="918.679" width="1.34887" height="1.34887" fill="white"/>
<rect opacity="0.4" x="774.929" y="165.512" width="1.34887" height="1.34887" fill="white"/>
<rect opacity="0.4" x="340.846" y="733.737" width="1.34887" height="1.34887" fill="white"/>
<rect opacity="0.4" x="800.445" y="1010.38" width="1.34887" height="1.34887" fill="white"/>
<rect opacity="0.4" x="1512.21" y="945.273" width="1.34887" height="1.34887" fill="white"/>
<rect x="933.011" y="666.989" width="1.34887" height="1.34887" fill="white"/>
<rect opacity="0.4" x="1649.92" y="176.724" width="1.34887" height="1.34887" fill="white"/>
<rect x="1407.89" y="626.351" width="1.34887" height="1.34887" fill="white"/>
<rect x="1383.96" y="925.484" width="1.34887" height="1.34887" fill="white"/>
<rect x="1177.9" y="583.774" width="1.34887" height="1.34887" fill="white"/>
<rect opacity="0.4" x="1018.34" y="879.222" width="1.34887" height="1.34887" fill="white"/>
<rect opacity="0.4" x="977.664" y="754.736" width="1.34887" height="1.34887" fill="white"/>
<rect opacity="0.4" x="621.756" y="156.69" width="1.34887" height="1.34887" fill="white"/>
<rect x="15.1021" y="438.905" width="1.34887" height="1.34887" fill="white"/>
<rect x="465.859" y="99.4907" width="1.34887" height="1.34887" fill="white"/>
<rect x="457.986" y="384.012" width="1.34887" height="1.34887" fill="white"/>
<rect x="1197.35" y="531.254" width="1.34887" height="1.34887" fill="white"/>
<rect opacity="0.4" x="576.327" y="179.309" width="1.34887" height="1.34887" fill="white"/>
<rect opacity="0.4" x="357.265" y="71.902" width="1.34887" height="1.34887" fill="white"/>
<rect opacity="0.4" x="1639.2" y="375.435" width="1.34887" height="1.34887" fill="white"/>
<rect opacity="0.4" x="881.543" y="40.8977" width="1.34887" height="1.34887" fill="white"/>
<rect opacity="0.4" x="624.079" y="952.14" width="1.34887" height="1.34887" fill="white"/>
<rect opacity="0.4" x="1446.16" y="624.967" width="1.34887" height="1.34887" fill="white"/>
<rect x="1382.51" y="677.011" width="1.34887" height="1.34887" fill="white"/>
<rect opacity="0.4" x="715.413" y="856.639" width="1.34887" height="1.34887" fill="white"/>
<rect opacity="0.4" x="1890.07" y="961.943" width="1.34887" height="1.34887" fill="white"/>
<rect opacity="0.4" x="1421.65" y="711.056" width="1.34887" height="1.34887" fill="white"/>
<rect x="1358.97" y="876.586" width="1.34887" height="1.34887" fill="white"/>
<rect x="348.607" y="505.054" width="1.34887" height="1.34887" fill="white"/>
<rect x="397.34" y="196.622" width="1.34887" height="1.34887" fill="white"/>
<rect x="598.158" y="741.051" width="1.34887" height="1.34887" fill="white"/>
<rect x="299.1" y="796.625" width="1.34887" height="1.34887" fill="white"/>
<rect opacity="0.4" x="1027.13" y="501.798" width="1.34887" height="1.34887" fill="white"/>
<rect opacity="0.4" x="127.506" y="684.256" width="1.34887" height="1.34887" fill="white"/>
<rect x="279.694" y="940.935" width="1.34887" height="1.34887" fill="white"/>
<rect opacity="0.4" x="85.7432" y="562.333" width="1.34887" height="1.34887" fill="white"/>
<rect x="987.92" y="613.442" width="1.34887" height="1.34887" fill="white"/>
<rect opacity="0.4" x="374.409" y="637.418" width="1.34887" height="1.34887" fill="white"/>
<rect opacity="0.4" x="834.903" y="1027.84" width="1.34887" height="1.34887" fill="white"/>
<rect x="1780.74" y="144.372" width="1.34887" height="1.34887" fill="white"/>
<rect opacity="0.4" x="1004.62" y="797.877" width="1.34887" height="1.34887" fill="white"/>
<rect opacity="0.4" x="601.239" y="156.29" width="1.34887" height="1.34887" fill="white"/>
<rect opacity="0.4" x="400.463" y="992.302" width="1.34887" height="1.34887" fill="white"/>
<rect opacity="0.4" x="530.513" y="707.423" width="1.34887" height="1.34887" fill="white"/>
<rect opacity="0.4" x="1757.12" y="722.975" width="1.34887" height="1.34887" fill="white"/>
<rect x="1093.96" y="646.747" width="1.34887" height="1.34887" fill="white"/>
<rect opacity="0.4" x="968.114" y="1046.33" width="1.34887" height="1.34887" fill="white"/>
<rect opacity="0.4" x="285.166" y="556.833" width="1.34887" height="1.34887" fill="white"/>
<rect opacity="0.4" x="802.689" y="66.6267" width="1.34887" height="1.34887" fill="white"/>
<rect x="1911.52" y="234.119" width="1.34887" height="1.34887" fill="white"/>
<rect x="1576.58" y="609.291" width="1.34887" height="1.34887" fill="white"/>
<rect opacity="0.4" x="1135.1" y="351.247" width="1.34887" height="1.34887" fill="white"/>
<rect x="749.689" y="630.281" width="1.34887" height="1.34887" fill="white"/>
<rect opacity="0.4" x="1877.8" y="596.972" width="1.34887" height="1.34887" fill="white"/>
<rect opacity="0.4" x="1661.5" y="1002.62" width="1.34887" height="1.34887" fill="white"/>
<rect x="463.287" y="156.993" width="1.34887" height="1.34887" fill="white"/>
<rect x="499.003" y="1025.88" width="1.34887" height="1.34887" fill="white"/>
<rect opacity="0.4" x="191.561" y="710.9" width="1.34887" height="1.34887" fill="white"/>
<rect opacity="0.4" x="1762.4" y="311.951" width="1.34887" height="1.34887" fill="white"/>
<rect x="1790.57" y="801.339" width="1.34887" height="1.34887" fill="white"/>
<rect opacity="0.4" x="432.105" y="526.363" width="1.34887" height="1.34887" fill="white"/>
<rect x="1180.26" y="816.163" width="1.34887" height="1.34887" fill="white"/>
<rect x="1020.42" y="1065.87" width="1.34887" height="1.34887" fill="white"/>
<rect opacity="0.4" x="1412.28" y="533.936" width="1.34887" height="1.34887" fill="white"/>
<rect opacity="0.4" x="1064.86" y="466.607" width="1.34887" height="1.34887" fill="white"/>
<rect opacity="0.4" x="1382.78" y="219.415" width="1.34887" height="1.34887" fill="white"/>
<rect x="5.05371" y="365.847" width="1.34887" height="1.34887" fill="white"/>
<rect opacity="0.4" x="597.583" y="333.953" width="1.34887" height="1.34887" fill="white"/>
<rect opacity="0.4" x="1866.69" y="374.115" width="1.34887" height="1.34887" fill="white"/>
<rect x="444.814" y="938.981" width="1.34887" height="1.34887" fill="white"/>
<rect x="1623.28" y="251.601" width="1.34887" height="1.34887" fill="white"/>
<rect opacity="0.4" x="426.955" y="458.686" width="1.34887" height="1.34887" fill="white"/>
<path opacity="0.4" d="M341.416 821.433L341.78 822.418L342.765 822.782L341.78 823.146L341.416 824.131L341.051 823.146L340.067 822.782L341.051 822.418L341.416 821.433Z" fill="#D9D9D9"/>
<path d="M333.9 140.322L334.264 141.306L335.249 141.67L334.264 142.035L333.9 143.019L333.535 142.035L332.551 141.67L333.535 141.306L333.9 140.322Z" fill="#D9D9D9"/>
<path opacity="0.4" d="M447.321 565.086L447.685 566.071L448.67 566.435L447.685 566.799L447.321 567.784L446.957 566.799L445.972 566.435L446.957 566.071L447.321 565.086Z" fill="#D9D9D9"/>
<path d="M1378.93 338.626L1379.3 339.61L1380.28 339.975L1379.3 340.339L1378.93 341.324L1378.57 340.339L1377.59 339.975L1378.57 339.61L1378.93 338.626Z" fill="#D9D9D9"/>
<path d="M71.0886 204.357L71.4529 205.342L72.4375 205.706L71.4529 206.07L71.0886 207.055L70.7243 206.07L69.7397 205.706L70.7243 205.342L71.0886 204.357Z" fill="#D9D9D9"/>
<path d="M392.049 976.439L392.413 977.424L393.398 977.788L392.413 978.152L392.049 979.137L391.685 978.152L390.7 977.788L391.685 977.424L392.049 976.439Z" fill="#D9D9D9"/>
<path opacity="0.4" d="M303.566 862.615L303.93 863.6L304.915 863.964L303.93 864.328L303.566 865.313L303.201 864.328L302.217 863.964L303.201 863.6L303.566 862.615Z" fill="#D9D9D9"/>
<path opacity="0.4" d="M1115.76 1010.59L1116.12 1011.57L1117.11 1011.94L1116.12 1012.3L1115.76 1013.29L1115.39 1012.3L1114.41 1011.94L1115.39 1011.57L1115.76 1010.59Z" fill="#D9D9D9"/>
<path d="M1804.9 782.733L1805.26 783.717L1806.25 784.082L1805.26 784.446L1804.9 785.431L1804.53 784.446L1803.55 784.082L1804.53 783.717L1804.9 782.733Z" fill="#D9D9D9"/>
<path opacity="0.4" d="M750.724 567.599L751.088 568.583L752.073 568.948L751.088 569.312L750.724 570.297L750.36 569.312L749.375 568.948L750.36 568.583L750.724 567.599Z" fill="#D9D9D9"/>
<path d="M381.472 306.826L381.836 307.811L382.821 308.175L381.836 308.54L381.472 309.524L381.108 308.54L380.123 308.175L381.108 307.811L381.472 306.826Z" fill="#D9D9D9"/>
<path opacity="0.4" d="M1033.9 850.858L1034.27 851.843L1035.25 852.207L1034.27 852.571L1033.9 853.556L1033.54 852.571L1032.55 852.207L1033.54 851.843L1033.9 850.858Z" fill="#D9D9D9"/>
<path d="M1787.32 915.786L1787.68 916.771L1788.67 917.135L1787.68 917.5L1787.32 918.484L1786.95 917.5L1785.97 917.135L1786.95 916.771L1787.32 915.786Z" fill="#D9D9D9"/>
<path opacity="0.4" d="M1841.52 558.421L1841.88 559.405L1842.87 559.769L1841.88 560.134L1841.52 561.118L1841.15 560.134L1840.17 559.769L1841.15 559.405L1841.52 558.421Z" fill="#D9D9D9"/>
<path opacity="0.4" d="M517.044 43.6473L517.409 44.6319L518.393 44.9962L517.409 45.3605L517.044 46.3451L516.68 45.3605L515.695 44.9962L516.68 44.6319L517.044 43.6473Z" fill="#D9D9D9"/>
<path d="M66.2786 571.787L66.6429 572.772L67.6274 573.136L66.6429 573.5L66.2786 574.485L65.9142 573.5L64.9297 573.136L65.9142 572.772L66.2786 571.787Z" fill="#D9D9D9"/>
<path opacity="0.4" d="M1263.93 741.042L1264.3 742.026L1265.28 742.391L1264.3 742.755L1263.93 743.74L1263.57 742.755L1262.58 742.391L1263.57 742.026L1263.93 741.042Z" fill="#D9D9D9"/>
<path d="M539.184 218.259L539.548 219.244L540.533 219.608L539.548 219.972L539.184 220.957L538.82 219.972L537.835 219.608L538.82 219.244L539.184 218.259Z" fill="#D9D9D9"/>
<path d="M220.881 375.57L221.245 376.554L222.23 376.919L221.245 377.283L220.881 378.268L220.517 377.283L219.532 376.919L220.517 376.554L220.881 375.57Z" fill="#D9D9D9"/>
<path opacity="0.4" d="M1473.79 771.085L1474.15 772.07L1475.14 772.434L1474.15 772.798L1473.79 773.783L1473.43 772.798L1472.44 772.434L1473.43 772.07L1473.79 771.085Z" fill="#D9D9D9"/>
<path opacity="0.4" d="M1542.99 503.678L1543.35 504.662L1544.34 505.027L1543.35 505.391L1542.99 506.375L1542.62 505.391L1541.64 505.027L1542.62 504.662L1542.99 503.678Z" fill="#D9D9D9"/>
<path d="M858.102 51.1539L858.467 52.1384L859.451 52.5027L858.467 52.867L858.102 53.8516L857.738 52.867L856.753 52.5027L857.738 52.1384L858.102 51.1539Z" fill="#D9D9D9"/>
<path d="M1300.61 767.748L1300.98 768.733L1301.96 769.097L1300.98 769.462L1300.61 770.446L1300.25 769.462L1299.27 769.097L1300.25 768.733L1300.61 767.748Z" fill="#D9D9D9"/>
<path d="M1918.16 1035.16L1918.52 1036.14L1919.51 1036.51L1918.52 1036.87L1918.16 1037.85L1917.8 1036.87L1916.81 1036.51L1917.8 1036.14L1918.16 1035.16Z" fill="#D9D9D9"/>
<path d="M1202.44 1036.51L1202.81 1037.49L1203.79 1037.86L1202.81 1038.22L1202.44 1039.21L1202.08 1038.22L1201.09 1037.86L1202.08 1037.49L1202.44 1036.51Z" fill="#D9D9D9"/>
<path d="M576.994 299.903L577.359 300.887L578.343 301.252L577.359 301.616L576.994 302.601L576.63 301.616L575.646 301.252L576.63 300.887L576.994 299.903Z" fill="#D9D9D9"/>
<path opacity="0.4" d="M1536.68 626.07L1537.05 627.055L1538.03 627.419L1537.05 627.783L1536.68 628.768L1536.32 627.783L1535.34 627.419L1536.32 627.055L1536.68 626.07Z" fill="#D9D9D9"/>
<path opacity="0.4" d="M1109.31 27.9603L1109.67 28.9449L1110.66 29.3092L1109.67 29.6735L1109.31 30.6581L1108.95 29.6735L1107.96 29.3092L1108.95 28.9449L1109.31 27.9603Z" fill="#D9D9D9"/>
<path d="M535.919 919.391L536.284 920.375L537.268 920.739L536.284 921.104L535.919 922.088L535.555 921.104L534.57 920.739L535.555 920.375L535.919 919.391Z" fill="#D9D9D9"/>
<path opacity="0.4" d="M880.179 717.359L880.544 718.344L881.528 718.708L880.544 719.072L880.179 720.057L879.815 719.072L878.831 718.708L879.815 718.344L880.179 717.359Z" fill="#D9D9D9"/>
<path d="M968.437 247.467L968.801 248.452L969.786 248.816L968.801 249.18L968.437 250.165L968.072 249.18L967.088 248.816L968.072 248.452L968.437 247.467Z" fill="#D9D9D9"/>
<path opacity="0.4" d="M1754.68 1001.44L1755.04 1002.43L1756.03 1002.79L1755.04 1003.16L1754.68 1004.14L1754.31 1003.16L1753.33 1002.79L1754.31 1002.43L1754.68 1001.44Z" fill="#D9D9D9"/>
<path opacity="0.4" d="M1663.77 457.735L1664.14 458.719L1665.12 459.084L1664.14 459.448L1663.77 460.433L1663.41 459.448L1662.42 459.084L1663.41 458.719L1663.77 457.735Z" fill="#D9D9D9"/>
<path opacity="0.4" d="M926.957 213.155L927.321 214.139L928.306 214.504L927.321 214.868L926.957 215.852L926.592 214.868L925.608 214.504L926.592 214.139L926.957 213.155Z" fill="#D9D9D9"/>
<path opacity="0.4" d="M1517.65 305.915L1518.02 306.9L1519 307.264L1518.02 307.628L1517.65 308.613L1517.29 307.628L1516.3 307.264L1517.29 306.9L1517.65 305.915Z" fill="#D9D9D9"/>
<path d="M1542.46 596.047L1542.83 597.031L1543.81 597.396L1542.83 597.76L1542.46 598.744L1542.1 597.76L1541.11 597.396L1542.1 597.031L1542.46 596.047Z" fill="#D9D9D9"/>
<path opacity="0.4" d="M1036.2 387.705L1036.56 388.69L1037.55 389.054L1036.56 389.418L1036.2 390.403L1035.83 389.418L1034.85 389.054L1035.83 388.69L1036.2 387.705Z" fill="#D9D9D9"/>
<path opacity="0.4" d="M325.69 686.483L326.055 687.467L327.039 687.832L326.055 688.196L325.69 689.18L325.326 688.196L324.341 687.832L325.326 687.467L325.69 686.483Z" fill="#D9D9D9"/>
</g>
<g opacity="0.1" filter="url(#filter0_f_120_1275)">
<rect x="170" y="-60.1612" width="174.718" height="908.744" transform="rotate(-41.0929 170 -60.1612)" fill="url(#paint1_linear_120_1275)"/>
</g>
<g opacity="0.1" filter="url(#filter1_f_120_1275)">
<rect x="515.44" y="-78.8995" width="117.7" height="612.185" transform="rotate(-41.0929 515.44 -78.8995)" fill="url(#paint2_linear_120_1275)"/>
</g>
<g opacity="0.1" filter="url(#filter2_f_120_1275)">
<rect x="787.955" y="-90.0482" width="83.7768" height="435.741" transform="rotate(-41.0929 787.955 -90.0482)" fill="url(#paint3_linear_120_1275)"/>
</g>
</g>
<defs>
<filter id="filter0_f_120_1275" x="90" y="-255" width="888.977" height="959.709" filterUnits="userSpaceOnUse" color-interpolation-filters="sRGB">
<feFlood flood-opacity="0" result="BackgroundImageFix"/>
<feBlend mode="normal" in="SourceGraphic" in2="BackgroundImageFix" result="shape"/>
<feGaussianBlur stdDeviation="40" result="effect1_foregroundBlur_120_1275"/>
</filter>
<filter id="filter1_f_120_1275" x="435.44" y="-236.262" width="651.082" height="698.732" filterUnits="userSpaceOnUse" color-interpolation-filters="sRGB">
<feFlood flood-opacity="0" result="BackgroundImageFix"/>
<feBlend mode="normal" in="SourceGraphic" in2="BackgroundImageFix" result="shape"/>
<feGaussianBlur stdDeviation="40" result="effect1_foregroundBlur_120_1275"/>
</filter>
<filter id="filter2_f_120_1275" x="707.955" y="-225.113" width="509.543" height="543.459" filterUnits="userSpaceOnUse" color-interpolation-filters="sRGB">
<feFlood flood-opacity="0" result="BackgroundImageFix"/>
<feBlend mode="normal" in="SourceGraphic" in2="BackgroundImageFix" result="shape"/>
<feGaussianBlur stdDeviation="40" result="effect1_foregroundBlur_120_1275"/>
</filter>
<linearGradient id="paint0_linear_120_1275" x1="211.866" y1="1171.26" x2="852.903" y2="411.513" gradientUnits="userSpaceOnUse">
<stop stop-color="#1C1C1C"/>
<stop offset="1" stop-color="#010101"/>
</linearGradient>
<linearGradient id="paint1_linear_120_1275" x1="257.359" y1="-60.1612" x2="257.359" y2="705.182" gradientUnits="userSpaceOnUse">
<stop stop-color="white"/>
<stop offset="1" stop-color="white" stop-opacity="0"/>
</linearGradient>
<linearGradient id="paint2_linear_120_1275" x1="574.291" y1="-78.8995" x2="574.291" y2="436.682" gradientUnits="userSpaceOnUse">
<stop stop-color="white"/>
<stop offset="1" stop-color="white" stop-opacity="0"/>
</linearGradient>
<linearGradient id="paint3_linear_120_1275" x1="829.843" y1="-90.0482" x2="829.843" y2="276.933" gradientUnits="userSpaceOnUse">
<stop stop-color="white"/>
<stop offset="1" stop-color="white" stop-opacity="0"/>
</linearGradient>
<clipPath id="clip0_120_1275">
<rect width="1920" height="1080" fill="white"/>
</clipPath>
</defs>
</svg>
