<svg width="22" height="22" viewBox="0 0 22 22" fill="none" xmlns="http://www.w3.org/2000/svg">
<path d="M12.0313 11.0001C12.0313 10.724 12.1965 10.4746 12.4508 10.367C12.7051 10.2593 12.9991 10.3143 13.1974 10.5065L16.9786 14.1732C17.1121 14.3027 17.1875 14.4808 17.1875 14.6668C17.1875 14.8528 17.1121 15.0308 16.9786 15.1603L13.1974 18.827C12.9991 19.0192 12.7051 19.0742 12.4508 18.9666C12.1965 18.8589 12.0313 18.6096 12.0313 18.3334V15.3543H5.5C5.12031 15.3543 4.8125 15.0465 4.8125 14.6668C4.8125 14.2871 5.12031 13.9793 5.5 13.9793L12.0313 13.9793L12.0313 11.0001Z" fill="#9B9B9B"/>
<path d="M9.96875 3.66677C9.96875 3.39062 9.80353 3.14128 9.54922 3.03364C9.29492 2.92601 9.00089 2.98097 8.80265 3.17321L5.0214 6.83988C4.88787 6.96936 4.8125 7.14743 4.8125 7.33343C4.8125 7.51944 4.88787 7.6975 5.0214 7.82699L8.80265 11.4937C9.00089 11.6859 9.29492 11.7409 9.54922 11.6332C9.80353 11.5256 9.96875 11.2762 9.96875 11.0001V8.02093L16.5 8.02093C16.8797 8.02093 17.1875 7.71313 17.1875 7.33343C17.1875 6.95374 16.8797 6.64593 16.5 6.64593L9.96875 6.64593V3.66677Z" fill="#9B9B9B"/>
</svg>
