<svg width="24" height="24" viewBox="0 0 24 24" fill="none" xmlns="http://www.w3.org/2000/svg">
<path d="M13.9797 8C13.9797 8 14.5556 10.9154 15.8182 12.1695C17.0807 13.4236 20 13.9797 20 13.9797C20 13.9797 17.0846 14.5556 15.8305 15.8182C14.5764 17.0807 14.0203 20 14.0203 20C14.0203 20 13.4444 17.0846 12.1818 15.8305C10.9193 14.5764 8 14.0203 8 14.0203C8 14.0203 10.9154 13.4444 12.1695 12.1818C13.4236 10.9193 13.9797 8 13.9797 8Z" stroke="#111111" stroke-width="1.5" stroke-linejoin="round"/>
<path d="M4.98987 2C4.98987 2 5.2778 3.45771 5.90909 4.08475C6.54037 4.71179 8 4.98987 8 4.98987C8 4.98987 6.54229 5.2778 5.91525 5.90909C5.28821 6.54037 5.01013 8 5.01013 8C5.01013 8 4.7222 6.54229 4.09091 5.91525C3.45963 5.28821 2 5.01013 2 5.01013C2 5.01013 3.45771 4.7222 4.08475 4.09091C4.71179 3.45963 4.98987 2 4.98987 2Z" stroke="#111111" stroke-linejoin="round"/>
</svg>
