<svg width="26" height="26" viewBox="0 0 26 26" fill="none" xmlns="http://www.w3.org/2000/svg">
<path d="M17.3333 2.16675H8.66667C4.875 2.16675 3.25 4.33341 3.25 7.58341V18.4167C3.25 21.6667 4.875 23.8334 8.66667 23.8334H17.3333C21.125 23.8334 22.75 21.6667 22.75 18.4167V7.58341C22.75 4.33341 21.125 2.16675 17.3333 2.16675ZM8.66667 13.2709H13C13.4442 13.2709 13.8125 13.6392 13.8125 14.0834C13.8125 14.5276 13.4442 14.8959 13 14.8959H8.66667C8.2225 14.8959 7.85417 14.5276 7.85417 14.0834C7.85417 13.6392 8.2225 13.2709 8.66667 13.2709ZM17.3333 19.2292H8.66667C8.2225 19.2292 7.85417 18.8609 7.85417 18.4167C7.85417 17.9726 8.2225 17.6042 8.66667 17.6042H17.3333C17.7775 17.6042 18.1458 17.9726 18.1458 18.4167C18.1458 18.8609 17.7775 19.2292 17.3333 19.2292ZM20.0417 10.0209H17.875C16.2283 10.0209 14.8958 8.68841 14.8958 7.04175V4.87508C14.8958 4.43091 15.2642 4.06258 15.7083 4.06258C16.1525 4.06258 16.5208 4.43091 16.5208 4.87508V7.04175C16.5208 7.78925 17.1275 8.39591 17.875 8.39591H20.0417C20.4858 8.39591 20.8542 8.76425 20.8542 9.20841C20.8542 9.65258 20.4858 10.0209 20.0417 10.0209Z" fill="white"/>
</svg>
